<?xml version="1.0" encoding="UTF-8"?>
<svg width="298px" height="51px" viewBox="0 0 298 51" version="1.1" xmlns="http://www.w3.org/2000/svg" xmlns:xlink="http://www.w3.org/1999/xlink">
    <!-- Generator: Sketch 50.2 (55047) - http://www.bohemiancoding.com/sketch -->
    <title>good_emporium_logo_color</title>
    <desc>Created with Sketch.</desc>
    <defs>
        <polygon id="path-1" points="0 51 298 51 298 0 0 0"></polygon>
    </defs>
    <g id="category/search" stroke="none" stroke-width="1" fill="none" fill-rule="evenodd">
        <g id="good_emporium" transform="translate(-37.000000, -40.000000)">
            <g id="good_emporium_logo_color" transform="translate(37.000000, 40.000000)">
                <path d="M59.6410378,27.0572801 C58.8283991,27.0572801 58.0923458,27.1916319 57.432878,27.4600126 C56.7724488,27.7287162 56.208152,28.1001214 55.7387057,28.5726135 C55.268939,29.0463974 54.9010726,29.6219141 54.634786,30.2994864 C54.368179,30.9777047 54.2348755,31.7256826 54.2348755,32.5440659 C54.2348755,33.2865535 54.368179,33.9770443 54.634786,34.6158613 C54.9010726,35.2559702 55.2753478,35.8188913 55.7576117,36.3043018 C56.2395552,36.7906812 56.8105813,37.174359 57.4710105,37.4556581 C58.1307988,37.7372802 58.8415372,37.8774453 59.6029053,37.8774453 C60.4405385,37.8774453 61.1951773,37.7372802 61.8681037,37.4556581 C62.5403892,37.174359 63.1114153,36.7971404 63.581182,36.3236795 C64.0506283,35.8505415 64.4124063,35.2814841 64.6661957,34.6158613 C64.9196646,33.9512074 65.0468797,33.2348797 65.0468797,32.4675242 C65.0468797,30.8559484 64.5646158,29.5511856 63.6004085,28.5535588 C62.6355602,27.555932 61.3163041,27.0572801 59.6410378,27.0572801 Z M69.3872549,23.373586 L69.3872549,40.1414025 C69.3872549,41.8040061 69.1834543,43.306744 68.7780963,44.6499392 C68.371777,45.9928114 67.7433919,47.1306033 66.8932616,48.0646067 C66.0428108,48.9982872 64.9709352,49.7207511 63.6766735,50.2326445 C62.3820913,50.7442148 60.8462169,51 59.0700117,51 C57.3694306,51 55.7576117,50.7823242 54.2348755,50.3476186 C52.7121392,49.91259 51.30348,49.1200435 50.0088978,47.9690102 L52.7502717,44.2084514 C53.6638494,45.0526717 54.6155595,45.705053 55.6054022,46.1655955 C56.5955653,46.6258151 57.7376175,46.8560863 59.0318792,46.8560863 C60.1226609,46.8560863 61.0429678,46.7026798 61.7918387,46.3955438 C62.5403892,46.0887308 63.1370506,45.6666207 63.581182,45.1295364 C64.024993,44.5921291 64.3428706,43.945884 64.5332126,43.1917699 C64.7235546,42.4370098 64.8187257,41.5992488 64.8187257,40.6784867 L64.8187257,39.3356146 L64.7424607,39.3356146 C64.0820315,40.2315086 63.2065863,40.9029447 62.1158047,41.3499228 C61.0240618,41.7972239 59.9073244,42.0213589 58.7652722,42.0213589 C57.3950659,42.0213589 56.150793,41.7723559 55.0346965,41.2733811 C53.9173183,40.7744062 52.9595198,40.1029701 52.1603396,39.2587498 C51.3608389,38.4148525 50.7449511,37.4172257 50.3139578,36.2661924 C49.8820031,35.1148362 49.6666667,33.8869381 49.6666667,32.5824983 C49.6666667,31.2270306 49.8691855,29.9607002 50.2755048,28.78383 C50.6811833,27.6076058 51.2778447,26.5841421 52.0648481,25.7144079 C52.8515311,24.8449967 53.7971529,24.1603192 54.9010726,23.6613443 C56.0053127,23.1626924 57.2675304,22.9130435 58.6893277,22.9130435 C59.9835894,22.9130435 61.1887685,23.1691516 62.3058263,23.680399 C63.4225636,24.1926153 64.310506,25.0109987 64.9709352,26.136518 L65.0468797,26.136518 L65.0468797,23.373586 L69.3872549,23.373586 Z" id="Fill-1" fill="#FFFFFF"></path>
                <path d="M76.8423615,32.5217391 C76.8423615,33.2335895 76.9616066,33.9200853 77.2013686,34.5809058 C77.4401767,35.2420472 77.7928241,35.8264834 78.2589928,36.3348562 C78.7248435,36.84355 79.2851362,37.2498631 79.9401891,37.5550794 C80.5949239,37.8599747 81.3380591,38.0124224 82.1689587,38.0124224 C83.0004942,38.0124224 83.7429934,37.8599747 84.3980462,37.5550794 C85.0527811,37.2498631 85.6130738,36.84355 86.0792425,36.3348562 C86.5450932,35.8264834 86.8974226,35.2420472 87.1371846,34.5809058 C87.3759927,33.9200853 87.4958738,33.2335895 87.4958738,32.5217391 C87.4958738,31.8105307 87.3759927,31.1240348 87.1371846,30.4625724 C86.8974226,29.8020729 86.5450932,29.2176367 86.0792425,28.708943 C85.6130738,28.2005701 85.0527811,27.7936151 84.3980462,27.4883989 C83.7429934,27.1835036 83.0004942,27.0310559 82.1689587,27.0310559 C81.3380591,27.0310559 80.5949239,27.1835036 79.9401891,27.4883989 C79.2851362,27.7936151 78.7248435,28.2005701 78.2589928,28.708943 C77.7928241,29.2176367 77.4401767,29.8020729 77.2013686,30.4625724 C76.9616066,31.1240348 76.8423615,31.8105307 76.8423615,32.5217391 M72.3088235,32.5217391 C72.3088235,31.073005 72.5670288,29.7574619 73.0834394,28.5754309 C73.599214,27.3933999 74.298149,26.3827522 75.1799265,25.5441296 C76.0613859,24.7051861 77.1069266,24.0568823 78.3155944,23.5995394 C79.5245803,23.1415545 80.809247,22.9130435 82.1689587,22.9130435 C83.5293062,22.9130435 84.813655,23.1415545 86.0226409,23.5995394 C87.2316267,24.0568823 88.2765314,24.7051861 89.1583088,25.5441296 C90.0394503,26.3827522 90.7383853,27.3933999 91.2547959,28.5754309 C91.7708885,29.7574619 92.0294118,31.073005 92.0294118,32.5217391 C92.0294118,33.9707942 91.7708885,35.2863373 91.2547959,36.4683683 C90.7383853,37.6503993 90.0394503,38.6607261 89.1583088,39.4996696 C88.2765314,40.3382922 87.2316267,40.9865959 86.0226409,41.4442599 C84.813655,41.9019238 83.5293062,42.1304348 82.1689587,42.1304348 C80.809247,42.1304348 79.5245803,41.9019238 78.3155944,41.4442599 C77.1069266,40.9865959 76.0613859,40.3382922 75.1799265,39.4996696 C74.298149,38.6607261 73.599214,37.6503993 73.0834394,36.4683683 C72.5670288,35.2863373 72.3088235,33.9707942 72.3088235,32.5217391" id="Fill-3" fill="#FFFFFF"></path>
                <path d="M98.7540531,32.5217391 C98.7540531,33.2335895 98.8732963,33.9200853 99.1130545,34.5809058 C99.3521767,35.2420472 99.7045004,35.8264834 100.17098,36.3348562 C100.636505,36.84355 101.196788,37.2498631 101.852149,37.5550794 C102.506555,37.8599747 103.249678,38.0124224 104.080882,38.0124224 C104.912086,38.0124224 105.654574,37.8599747 106.309616,37.5550794 C106.96434,37.2498631 107.524624,36.84355 107.990785,36.3348562 C108.456628,35.8264834 108.808952,35.2420472 109.04871,34.5809058 C109.287514,33.9200853 109.407712,33.2335895 109.407712,32.5217391 C109.407712,31.8105307 109.287514,31.1240348 109.04871,30.4625724 C108.808952,29.8020729 108.456628,29.2176367 107.990785,28.708943 C107.524624,28.2005701 106.96434,27.7936151 106.309616,27.4883989 C105.654574,27.1835036 104.912086,27.0310559 104.080882,27.0310559 C103.249678,27.0310559 102.506555,27.1835036 101.852149,27.4883989 C101.196788,27.7936151 100.636505,28.2005701 100.17098,28.708943 C99.7045004,29.2176367 99.3521767,29.8020729 99.1130545,30.4625724 C98.8732963,31.1240348 98.7540531,31.8105307 98.7540531,32.5217391 M94.2205882,32.5217391 C94.2205882,31.073005 94.4787894,29.7574619 94.9951916,28.5754309 C95.5109579,27.3933999 96.2098817,26.3827522 97.0919629,25.5441296 C97.9730901,24.7051861 99.0186139,24.0568823 100.227262,23.5995394 C101.436547,23.1415545 102.720875,22.9130435 104.080882,22.9130435 C105.44089,22.9130435 106.725218,23.1415545 107.934502,23.5995394 C109.143151,24.0568823 110.188039,24.7051861 111.069802,25.5441296 C111.951247,26.3827522 112.649853,27.3933999 113.166573,28.5754309 C113.682339,29.7574619 113.941176,31.073005 113.941176,32.5217391 C113.941176,33.9707942 113.682339,35.2863373 113.166573,36.4683683 C112.649853,37.6503993 111.951247,38.6607261 111.069802,39.4996696 C110.188039,40.3382922 109.143151,40.9865959 107.934502,41.4442599 C106.725218,41.9019238 105.44089,42.1304348 104.080882,42.1304348 C102.720875,42.1304348 101.436547,41.9019238 100.227262,41.4442599 C99.0186139,40.9865959 97.9730901,40.3382922 97.0919629,39.4996696 C96.2098817,38.6607261 95.5109579,37.6503993 94.9951916,36.4683683 C94.4787894,35.2863373 94.2205882,33.9707942 94.2205882,32.5217391" id="Fill-5" fill="#FFFFFF"></path>
                <path d="M119.97049,32.4293833 C119.97049,33.1480757 120.090655,33.8411699 120.332268,34.508342 C120.572919,35.1758381 120.928289,35.7658917 121.398055,36.2791509 C121.867502,36.7927341 122.432119,37.2029526 123.092228,37.5111025 C123.752016,37.8189283 124.500887,37.9728413 125.338199,37.9728413 C126.176153,37.9728413 126.924383,37.8189283 127.584492,37.5111025 C128.24428,37.2029526 128.808897,36.7927341 129.278664,36.2791509 C129.74811,35.7658917 130.103159,35.1758381 130.344772,34.508342 C130.585423,33.8411699 130.706229,33.1480757 130.706229,32.4293833 C130.706229,31.7113389 130.585423,31.0182446 130.344772,30.3504245 C130.103159,29.6835764 129.74811,29.0935228 129.278664,28.5799397 C128.808897,28.0666805 128.24428,27.655814 127.584492,27.3476641 C126.924383,27.0398382 126.176153,26.8859253 125.338199,26.8859253 C124.500887,26.8859253 123.752016,27.0398382 123.092228,27.3476641 C122.432119,27.655814 121.867502,28.0666805 121.398055,28.5799397 C120.928289,29.0935228 120.572919,29.6835764 120.332268,30.3504245 C120.090655,31.0182446 119.97049,31.7113389 119.97049,32.4293833 Z M130.782494,38.8966429 L130.706229,38.8966429 C130.046121,40.0265259 129.157858,40.8476109 128.041441,41.3605461 C126.924383,41.8734812 125.719204,42.1304348 124.424622,42.1304348 C123.003145,42.1304348 121.740607,41.8802858 120.636687,41.3799877 C119.532767,40.8796896 118.586825,40.1930759 117.800463,39.3204706 C117.013459,38.4481892 116.416798,37.4213469 116.011119,36.2405917 C115.6048,35.0604844 115.401961,33.7899736 115.401961,32.4293833 C115.401961,31.0694409 115.617618,29.7989301 116.049252,28.6181749 C116.480566,27.4380677 117.082995,26.4112254 117.857501,25.53862 C118.631367,24.6663387 119.564171,23.9794009 120.655914,23.4787788 C121.746695,22.9784808 122.940018,22.7283318 124.2346,22.7283318 C125.096907,22.7283318 125.858275,22.8184113 126.518705,22.9979224 C127.178493,23.1777575 127.761696,23.408789 128.269915,23.6906927 C128.777174,23.9732444 129.208487,24.2749138 129.564177,24.5953767 C129.919226,24.9164877 130.211148,25.2304701 130.439943,25.53862 L130.55402,25.53862 L130.55402,12.5652174 L135.122549,12.5652174 L135.122549,41.668696 L130.782494,41.668696 L130.782494,38.8966429 Z" id="Fill-7" fill="#FFFFFF"></path>
                <path d="M153.323497,30.669311 C153.323497,29.8839553 153.166951,29.1485244 152.854806,28.4639785 C152.541714,27.7794325 152.11721,27.1777745 151.579714,26.6580444 C151.041903,26.1386343 150.404358,25.7264346 149.667708,25.4224053 C148.929796,25.118056 148.148644,24.9660413 147.323938,24.9660413 C146.098713,24.9660413 145.079902,25.2195058 144.26782,25.7264346 C143.455107,26.2340035 142.811249,26.8164597 142.336561,27.4754032 C141.861558,28.1349868 141.524163,28.7747284 141.324378,29.3955882 C141.123961,30.0167681 141.024226,30.441129 141.024226,30.669311 L153.323497,30.669311 Z M155.048343,37.6271016 C154.172822,38.9709111 153.09215,39.9342039 151.804749,40.5169801 C150.517033,41.0997562 149.098335,41.3913043 147.548972,41.3913043 C146.223382,41.3913043 145.023722,41.1634424 143.949047,40.7070784 C142.874056,40.2507144 141.948984,39.6109728 141.174144,38.7868933 C140.399305,37.963454 139.80563,36.9873599 139.393119,35.8592512 C138.980923,34.7317825 138.77451,33.4830222 138.77451,32.1139302 C138.77451,30.7963632 138.986604,29.579606 139.412056,28.4639785 C139.836876,27.348991 140.436548,26.3792975 141.211703,25.5552181 C141.986542,24.7317788 142.899306,24.0856365 143.949047,23.6161512 C144.999104,23.1476261 146.161521,22.9130435 147.436297,22.9130435 C148.760941,22.9130435 149.929985,23.1476261 150.942484,23.6161512 C151.954667,24.0856365 152.804308,24.7064963 153.492037,25.4793708 C154.17945,26.2528854 154.698008,27.1332902 155.048343,28.1218655 C155.398046,29.1104408 155.573529,30.1118173 155.573529,31.125675 L155.573529,32.7226289 L141.024226,32.7226289 C141.024226,33.2042753 141.117965,33.8190546 141.305441,34.5666466 C141.492917,35.3145587 141.836308,36.0432689 142.336561,36.7527773 C142.836498,37.4626057 143.504974,38.0709843 144.342937,38.5775932 C145.180268,39.0851621 146.261256,39.3379865 147.586215,39.3379865 C148.736007,39.3379865 149.848556,39.0595596 150.923547,38.5017459 C151.998222,37.9442521 152.823245,37.1838588 153.398298,36.220566 L155.048343,37.6271016 Z" id="Fill-9" fill="#FFFFFF"></path>
                <path d="M159.414101,28.448581 C159.414101,28.1112643 159.4014,27.7017592 159.376633,27.2203939 C159.351231,26.7400129 159.332179,26.2527412 159.319796,25.7585788 C159.307095,25.2654008 159.288043,24.8037232 159.263276,24.3748585 C159.237874,23.9459938 159.22549,23.6145834 159.22549,23.3806274 L161.489142,23.3806274 C161.513592,24.0569014 161.532644,24.7062689 161.545662,25.3297141 C161.558046,25.9534875 161.589481,26.3567581 161.639968,26.5382135 L161.753007,26.5382135 C162.205801,25.5508731 162.960246,24.7000344 164.01666,23.9850412 C165.072755,23.270376 166.304761,22.9130435 167.71363,22.9130435 C168.869747,22.9130435 169.92616,23.2188598 170.882235,23.8291799 C171.837674,24.4398281 172.529249,25.4340592 172.956958,26.8112169 C173.510408,25.4603095 174.334074,24.4723129 175.428273,23.8485395 C176.522154,23.2247661 177.672873,22.9130435 178.880112,22.9130435 C180.238176,22.9130435 181.344441,23.1338743 182.19986,23.5755361 C183.054326,24.0178541 183.727484,24.5956894 184.217746,25.3103545 C184.708326,26.0256759 185.047762,26.8502643 185.236373,27.7857603 C185.425302,28.7215844 185.519608,29.6833307 185.519608,30.6706711 L185.519608,41.3913043 L183.255956,41.3913043 L183.255956,30.7874851 C183.255956,30.060351 183.193085,29.3519204 183.067345,28.6631774 C182.941286,27.9747626 182.72124,27.3568956 182.407205,26.8112169 C182.092536,26.2655383 181.65276,25.8304391 181.086927,25.5052632 C180.521093,25.1807435 179.785382,25.0179915 178.880112,25.0179915 C177.823699,25.0179915 176.955897,25.2194628 176.277023,25.6220771 C175.597833,26.0256759 175.063434,26.5382135 174.673828,27.162315 C174.28327,27.7857603 174.007021,28.4620343 173.843494,29.1894965 C173.679968,29.9172868 173.598681,30.6060297 173.598681,31.2553971 L173.598681,41.3913043 L171.335029,41.3913043 L171.335029,30.5538572 C171.335029,28.890899 171.039093,27.5521324 170.448492,26.5382135 C169.857257,25.5246228 168.945636,25.0179915 167.71363,25.0179915 C166.883296,25.0179915 166.097416,25.1676184 165.355672,25.4662158 C164.613611,25.7654695 163.972206,26.2202565 163.431774,26.8305765 C162.890708,27.441881 162.463634,28.2087187 162.149282,29.1307614 C161.834294,30.0534603 161.677753,31.1385832 161.677753,32.3861299 L161.677753,41.3913043 L159.414101,41.3913043 L159.414101,28.448581 Z" id="Fill-11" fill="#FFFFFF"></path>
                <path d="M191.994875,32.3796239 C191.994875,33.3925185 192.188639,34.3470462 192.576168,35.2428792 C192.963696,36.13904 193.493122,36.9181393 194.165099,37.5805048 C194.836424,38.2428703 195.624529,38.7685 196.528762,39.1580496 C197.433321,39.5475992 198.414864,39.742374 199.474369,39.742374 C200.559644,39.742374 201.541513,39.5475992 202.419976,39.1580496 C203.297787,38.7685 204.0474,38.2428703 204.667836,37.5805048 C205.287621,36.9181393 205.758657,36.13904 206.082576,35.2428792 C206.404864,34.3470462 206.56666,33.3925185 206.56666,32.3796239 C206.56666,31.3667293 206.404864,30.4122016 206.082576,29.5163686 C205.758657,28.6202077 205.287621,27.8411085 204.667836,27.178743 C204.0474,26.5167054 203.297787,25.9907478 202.419976,25.6011982 C201.541513,25.2116486 200.559644,25.0165458 199.474369,25.0165458 C198.414864,25.0165458 197.433321,25.2116486 196.528762,25.6011982 C195.624529,25.9907478 194.836424,26.5167054 194.165099,27.178743 C193.493122,27.8411085 192.963696,28.6202077 192.576168,29.5163686 C192.188639,30.4122016 191.994875,31.3667293 191.994875,32.3796239 Z M189.901961,23.3806342 L192.227457,23.3806342 L192.227457,26.5360517 L192.304767,26.5360517 C192.666526,25.9127067 193.118642,25.3739609 193.661117,24.9194863 C194.203591,24.4653397 194.791082,24.0885783 195.424893,23.7895301 C196.057399,23.4914656 196.722852,23.2704585 197.420599,23.1271646 C198.118019,22.9848544 198.802066,22.9130435 199.474369,22.9130435 C200.84344,22.9130435 202.102907,23.1468388 203.253097,23.6144295 C204.402308,24.0816923 205.397225,24.7378277 206.237196,25.5818519 C207.076515,26.425876 207.729245,27.4259824 208.19441,28.5815151 C208.659575,29.7370478 208.892157,31.003412 208.892157,32.3796239 C208.892157,33.7564916 208.659575,35.0228558 208.19441,36.1777327 C207.729245,37.3339212 207.076515,38.3340275 206.237196,39.1777238 C205.397225,40.0220759 204.402308,40.6775554 203.253097,41.1448182 C202.102907,41.6124089 200.84344,41.8462043 199.474369,41.8462043 C198.802066,41.8462043 198.118019,41.7743934 197.420599,41.6317553 C196.722852,41.4887892 196.057399,41.2684379 195.424893,40.9697176 C194.791082,40.6716532 194.203591,40.2945639 193.661117,39.8397614 C193.118642,39.3859427 192.666526,38.8465411 192.304767,38.2231961 L192.227457,38.2231961 L192.227457,50.2608696 L189.901961,50.2608696 L189.901961,23.3806342 Z" id="Fill-13" fill="#FFFFFF"></path>
                <path d="M213.33786,32.1521739 C213.33786,33.1407321 213.49377,34.0723257 213.807171,34.9466348 C214.120573,35.821264 214.577866,36.5816441 215.178736,37.2280952 C215.779922,37.8745463 216.506342,38.3875469 217.357996,38.7677369 C218.208702,39.147927 219.161555,39.338022 220.21371,39.338022 C221.265232,39.338022 222.217136,39.147927 223.069107,38.7677369 C223.920444,38.3875469 224.646865,37.8745463 225.247734,37.2280952 C225.849553,36.5816441 226.306214,35.821264 226.619299,34.9466348 C226.9327,34.0723257 227.088926,33.1407321 227.088926,32.1521739 C227.088926,31.1636158 226.9327,30.2320221 226.619299,29.357713 C226.306214,28.4830838 225.849553,27.7227037 225.247734,27.0762526 C224.646865,26.4301215 223.920444,25.916801 223.069107,25.5366109 C222.217136,25.1564208 221.265232,24.9660058 220.21371,24.9660058 C219.161555,24.9660058 218.208702,25.1564208 217.357996,25.5366109 C216.506342,25.916801 215.779922,26.4301215 215.178736,27.0762526 C214.577866,27.7227037 214.120573,28.4830838 213.807171,29.357713 C213.49377,30.2320221 213.33786,31.1636158 213.33786,32.1521739 M211.083333,32.1521739 C211.083333,30.8090277 211.308818,29.57309 211.759786,28.4453209 C212.210755,27.3175517 212.836292,26.3414745 213.638295,25.5177294 C214.439666,24.6939843 215.40422,24.0536137 216.531326,23.5975776 C217.658431,23.1412215 218.885471,22.9130435 220.21371,22.9130435 C221.540367,22.9130435 222.761714,23.1412215 223.877119,23.5975776 C224.990942,24.0536137 225.95518,24.6939843 226.769833,25.5177294 C227.583537,26.3414745 228.216348,27.3175517 228.667633,28.4453209 C229.117969,29.57309 229.343137,30.8090277 229.343137,32.1521739 C229.343137,33.4959602 229.117969,34.7318979 228.667633,35.859027 C228.216348,36.9874362 227.583537,37.9635134 226.769833,38.7869384 C225.95518,39.6110036 224.990942,40.2507342 223.877119,40.7067702 C222.761714,41.1631263 221.540367,41.3913043 220.21371,41.3913043 C218.885471,41.3913043 217.658431,41.1631263 216.531326,40.7067702 C215.40422,40.2507342 214.439666,39.6110036 213.638295,38.7869384 C212.836292,37.9635134 212.210755,36.9874362 211.759786,35.859027 C211.308818,34.7318979 211.083333,33.4959602 211.083333,32.1521739" id="Fill-15" fill="#FFFFFF"></path>
                <path d="M233.188398,28.448581 C233.188398,28.1112643 233.175078,27.7017592 233.149738,27.2203939 C233.123748,26.7400129 233.104581,26.2527412 233.091911,25.7585788 C233.078591,25.2654008 233.059423,24.8037232 233.033758,24.3748585 C233.008093,23.9459938 232.995098,23.6145834 232.995098,23.3806274 L235.311126,23.3806274 C235.336141,24.0569014 235.355634,24.7062689 235.369279,25.3297141 C235.381624,25.9534875 235.413786,26.3567581 235.465766,26.5382135 C236.057037,25.4731065 236.816593,24.6025801 237.742809,23.9266342 C238.669026,23.2510164 239.800888,22.9130435 241.139369,22.9130435 C241.371004,22.9130435 241.596142,22.9324031 241.814783,22.9714505 C242.033423,23.0104978 242.258561,23.0561078 242.490196,23.1079522 L242.220226,25.4078089 C241.91127,25.3041201 241.614985,25.2519475 241.33202,25.2519475 C240.328808,25.2519475 239.460419,25.4143714 238.726853,25.7392192 C237.993612,26.0643951 237.388697,26.5129476 236.913081,27.0842203 C236.43649,27.6561493 236.083027,28.3255326 235.851717,29.091714 C235.619757,29.8585517 235.504101,30.6837963 235.504101,31.5671198 L235.504101,41.3913043 L233.188398,41.3913043 L233.188398,28.448581 Z" id="Fill-17" fill="#FFFFFF"></path>
                <mask id="mask-2" fill="white">
                    <use xlink:href="#path-1"></use>
                </mask>
                <g id="Clip-20"></g>
                <path d="M244.559584,41.3913043 L246.993996,41.3913043 L246.993996,23.5750303 L244.559584,23.5750303 L244.559584,41.3913043 Z M243.95098,16.5178526 C243.95098,16.0299978 244.126526,15.6184211 244.4783,15.2837715 C244.829732,14.9500958 245.262449,14.7826087 245.77679,14.7826087 C246.290448,14.7826087 246.723506,14.9500958 247.075622,15.2837715 C247.426371,15.6184211 247.602941,16.0299978 247.602941,16.5178526 C247.602941,17.0063565 247.426371,17.4179332 247.075622,17.7519336 C246.723506,18.0865831 246.290448,18.2530964 245.77679,18.2530964 C245.262449,18.2530964 244.829732,18.0865831 244.4783,17.7519336 C244.126526,17.4179332 243.95098,17.0063565 243.95098,16.5178526 Z" id="Fill-19" fill="#FFFFFF" mask="url(#mask-2)"></path>
                <path d="M266.401896,36.5946674 C266.401896,36.9326344 266.414774,37.3418041 266.440531,37.8225046 C266.465321,38.3038614 266.484639,38.7911245 266.497517,39.2846218 C266.510395,39.7784473 266.52939,40.2394605 266.555147,40.6686457 C266.580259,41.0971747 266.593137,41.4285791 266.593137,41.662531 L264.298245,41.662531 C264.272811,40.9869253 264.253172,40.3372412 264.240938,39.7131508 C264.228059,39.0897166 264.196186,38.6867813 264.145317,38.5046729 L264.030701,38.5046729 C263.571594,39.4929801 262.80663,40.3438037 261.735809,41.0584561 C260.664667,41.7727804 259.414839,42.1304348 257.986649,42.1304348 C256.609971,42.1304348 255.481521,41.9092797 254.601941,41.4676258 C253.722039,41.0259719 253.034023,40.4478188 252.536281,39.7325101 C252.039183,39.0185139 251.701131,38.1929558 251.522768,37.2574764 C251.343761,36.3216689 251.254902,35.3605959 251.254902,34.3726168 L251.254902,23.6521739 L253.550116,23.6521739 L253.550116,34.2558049 C253.550116,34.9835823 253.613541,35.6920004 253.741357,36.3804029 C253.868529,37.0691336 254.091643,37.6860054 254.4107,38.2320024 C254.729113,38.7776714 255.175664,39.213091 255.749387,39.537933 C256.32311,39.8631031 257.069079,40.025196 257.986649,40.025196 C258.82856,40.025196 259.625076,39.8758999 260.377483,39.5766515 C261.129569,39.2783875 261.779917,38.8232805 262.328528,38.212315 C262.876494,37.6020058 263.309845,36.8351818 263.628902,35.9124992 C263.947315,34.9901447 264.107004,33.904713 264.107004,32.6571884 L264.107004,23.6521739 L266.401896,23.6521739 L266.401896,36.5946674 Z" id="Fill-21" fill="#FFFFFF" mask="url(#mask-2)"></path>
                <path d="M271.164101,28.448581 C271.164101,28.1112643 271.1514,27.7017592 271.126633,27.2203939 C271.101231,26.7400129 271.082497,26.2527412 271.069796,25.7585788 C271.057095,25.2654008 271.038361,24.8037232 271.012958,24.3748585 C270.988191,23.9459938 270.97549,23.6145834 270.97549,23.3806274 L273.239142,23.3806274 C273.263592,24.0569014 273.282644,24.7062689 273.29598,25.3297141 C273.308046,25.9534875 273.339481,26.3567581 273.390285,26.5382135 L273.503007,26.5382135 C273.956119,25.5508731 274.710564,24.7000344 275.76666,23.9850412 C276.822755,23.270376 278.054761,22.9130435 279.46363,22.9130435 C280.620064,22.9130435 281.67616,23.2188598 282.632552,23.8291799 C283.587992,24.4398281 284.279566,25.4340592 284.707276,26.8112169 C285.260091,25.4603095 286.084074,24.4723129 287.178273,23.8485395 C288.272154,23.2247661 289.422873,22.9130435 290.629795,22.9130435 C291.988176,22.9130435 293.094441,23.1338743 293.94986,23.5755361 C294.804643,24.0178541 295.477484,24.5956894 295.968063,25.3103545 C296.458326,26.0256759 296.797762,26.8502643 296.986691,27.7857603 C297.175302,28.7215844 297.269608,29.6833307 297.269608,30.6706711 L297.269608,41.3913043 L295.006273,41.3913043 L295.006273,30.7874851 C295.006273,30.060351 294.943085,29.3519204 294.817345,28.6631774 C294.691286,27.9747626 294.471557,27.3568956 294.157205,26.8112169 C293.842218,26.2655383 293.40276,25.8304391 292.836927,25.5052632 C292.271093,25.1807435 291.535382,25.0179915 290.629795,25.0179915 C289.573699,25.0179915 288.705897,25.2194628 288.027023,25.6220771 C287.34815,26.0256759 286.813117,26.5382135 286.423828,27.162315 C286.033587,27.7857603 285.757021,28.4620343 285.593812,29.1894965 C285.429968,29.9172868 285.348363,30.6060297 285.348363,31.2553971 L285.348363,41.3913043 L283.085029,41.3913043 L283.085029,30.5538572 C283.085029,28.890899 282.789093,27.5521324 282.198492,26.5382135 C281.607574,25.5246228 280.695636,25.0179915 279.46363,25.0179915 C278.633296,25.0179915 277.847416,25.1676184 277.10599,25.4662158 C276.363928,25.7654695 275.722206,26.2202565 275.182092,26.8305765 C274.640708,27.441881 274.213634,28.2087187 273.899282,29.1307614 C273.584612,30.0534603 273.427753,31.1385832 273.427753,32.3861299 L273.427753,41.3913043 L271.164101,41.3913043 L271.164101,28.448581 Z" id="Fill-22" fill="#FFFFFF" mask="url(#mask-2)"></path>
                <path d="M9.34014286,21.9271794 C9.50911056,22.2881854 9.5786855,22.7004888 9.51937046,23.1246548 C8.74090067,28.6840186 11.2337354,34.3254583 15.8702476,37.4972453 C16.8423729,38.1621888 17.0914961,39.4901522 16.4262058,40.4625599 C15.7609155,41.4349677 14.4332206,41.6837604 13.4610952,41.0181757 C7.49881172,36.9393853 4.29291409,29.6833575 5.29389543,22.5334514 C5.45741256,21.3664339 6.53566375,20.5530483 7.70240658,20.716559 C8.44496672,20.8201158 9.04452954,21.294938 9.34014286,21.9271794" id="Fill-23" fill="#FFFFFF" mask="url(#mask-2)"></path>
                <path d="M40.6991613,33.0377578 C40.9961409,33.6839164 40.9761705,34.464746 40.5780503,35.115492 C36.4312876,41.8903274 28.4617985,45.4736898 20.7464492,44.0319566 C19.5820445,43.8147136 18.8122167,42.678038 19.0257714,41.4938508 C19.2396482,40.3096636 20.3567038,39.525885 21.5207865,39.7434556 C27.5193232,40.8644032 33.7153095,38.0782537 36.9392451,32.8110125 C37.5650926,31.7886926 38.886684,31.475771 39.8913253,32.1124272 C40.2565909,32.3437599 40.5297348,32.6688052 40.6991613,33.0377578" id="Fill-24" fill="#FFFFFF" mask="url(#mask-2)"></path>
                <path d="M41.9674639,16.2450676 C43.5380296,19.5411201 44.1696489,23.2703498 43.639167,26.9909352 C43.4731059,28.1559993 42.3759284,28.9682466 41.1883798,28.8052849 C40.0014836,28.642003 39.1734621,27.5646629 39.3395231,26.4002391 C40.1962547,20.3956285 37.1578919,14.3583616 31.779993,11.3763865 C30.7359942,10.7975363 30.3679846,9.49800477 30.9575177,8.47413143 C31.547377,7.44961777 32.8716243,7.08847671 33.9152968,7.66732693 C37.500454,9.65488343 40.2774908,12.6989696 41.9674639,16.2450676" id="Fill-25" fill="#FFFFFF" mask="url(#mask-2)"></path>
                <path d="M28.2847486,6.51012696 C28.4415064,6.85113313 28.5132866,7.23832745 28.4753042,7.64026268 C28.3620009,8.8385341 27.3158764,9.71643663 26.1387449,9.60113003 C20.5247581,9.05145822 14.9732169,11.8424021 11.9944981,16.7111577 C11.3693985,17.7331935 10.0483846,18.0457006 9.04442701,17.4095489 C8.0401475,16.7733971 7.73306973,15.4293545 8.35816935,14.4073188 C12.1892382,8.14505663 19.3296011,4.55515597 26.5485039,5.26206405 C27.331005,5.33871673 27.974452,5.83433857 28.2847486,6.51012696" id="Fill-26" fill="#FFFFFF" mask="url(#mask-2)"></path>
                <path d="M1.47379602,32.7659004 C2.75242246,32.1607336 4.27349933,32.7192534 4.87148227,34.0132405 C5.46946522,35.3069167 4.91757551,36.846578 3.63894908,37.4514338 C2.36062993,38.0566005 0.839245771,37.4983917 0.241262824,36.2044046 C-0.356720124,34.9104174 0.195169585,33.3710671 1.47379602,32.7659004" id="Fill-27" fill="#FFFFFF" mask="url(#mask-2)"></path>
                <path d="M44.5669333,12.0702482 C45.8455597,11.4650814 47.3666366,12.0236012 47.9646195,13.3175884 C48.5626025,14.6112645 48.0107128,16.1509258 46.7320863,16.7557816 C45.4537672,17.3609484 43.932383,16.8027395 43.3344001,15.5087524 C42.7364171,14.2147652 43.2883068,12.675415 44.5669333,12.0702482" id="Fill-28" fill="#FFFFFF" mask="url(#mask-2)"></path>
                <path d="M16.5577366,1.49142825 C17.155754,2.78535193 16.6038325,4.32462669 15.3254396,4.9297638 C14.0467395,5.5349009 12.5252677,4.97640849 11.9275575,3.6824848 C11.3295401,2.38887207 11.8814617,0.849286354 13.1598545,0.244149248 C14.4385546,-0.360987858 15.9600265,0.197504558 16.5577366,1.49142825" id="Fill-29" fill="#FFFFFF" mask="url(#mask-2)"></path>
                <path d="M37.0087253,45.8392543 C37.6067376,47.133178 37.0548208,48.6724528 35.7761317,49.2775899 C34.4977498,49.882727 32.976291,49.3242346 32.3785861,48.0303109 C31.7805738,46.7366982 32.3321833,45.1971124 33.6108724,44.5919753 C34.8895616,43.9868382 36.4107131,44.5453306 37.0087253,45.8392543" id="Fill-30" fill="#FFFFFF" mask="url(#mask-2)"></path>
            </g>
        </g>
    </g>
</svg>