<?xml version="1.0" encoding="UTF-8"?>
<svg width="51px" height="51px" viewBox="0 0 51 51" version="1.1" xmlns="http://www.w3.org/2000/svg" xmlns:xlink="http://www.w3.org/1999/xlink">
    <!-- Generator: Sketch 50.2 (55047) - http://www.bohemiancoding.com/sketch -->
    <title>Group</title>
    <desc>Created with Sketch.</desc>
    <defs>
        <polygon id="path-1" points="0 0.9216 11.4235 0.9216 11.4235 8.7256 0 8.7256"></polygon>
        <polygon id="path-3" points="0.4255 0.0186 11.842 0.0186 11.842 7.6936 0.4255 7.6936"></polygon>
    </defs>
    <g id="homepage" stroke="none" stroke-width="1" fill="none" fill-rule="evenodd">
        <g id="good_emporium" transform="translate(-1191.000000, -1810.000000)">
            <g id="Group" transform="translate(1191.000000, 1810.000000)">
                <path d="M13.0611,18.1641 C13.6941,17.0901 14.4601,16.1041 15.3391,15.2331 L7.8681,7.0401 C5.9891,8.8361 4.3851,10.9191 3.1241,13.2141 L13.0611,18.1641 Z" id="Fill-1" fill="#5EBA47"></path>
                <path d="M31.3775,12.3765 C32.5085,12.8945 33.5615,13.5555 34.5105,14.3395 L42.0035,6.1585 C40.0295,4.4575 37.7915,3.0525 35.3625,2.0165 L31.3775,12.3765 Z" id="Fill-3" fill="#E4B633"></path>
                <path d="M48.5357,14.8394 L38.6057,19.7904 C39.0797,20.8964 39.4177,22.0724 39.5997,23.2984 L50.6467,22.2554 C50.3207,19.6404 49.5977,17.1474 48.5357,14.8394" id="Fill-5" fill="#C4202E"></path>
                <path d="M37.8931,18.3551 L47.8221,13.4051 C46.5921,11.1201 45.0241,9.0431 43.1821,7.2441 L35.6901,15.4231 C36.5431,16.3001 37.2861,17.2841 37.8931,18.3551" id="Fill-7" fill="#4B9E46"></path>
                <g id="Group-11" transform="translate(0.000000, 22.832100)">
                    <mask id="mask-2" fill="white">
                        <use xlink:href="#path-1"></use>
                    </mask>
                    <g id="Clip-10"></g>
                    <path d="M11.0875,2.5796 C11.0875,2.3556 11.0955,2.1326 11.1055,1.9106 L0.0555,0.9216 C0.0215,1.4696 -0.0005,2.0216 -0.0005,2.5796 C-0.0005,4.6986 0.2635,6.7576 0.7515,8.7256 L11.4235,5.6636 C11.2045,4.6696 11.0875,3.6386 11.0875,2.5796" id="Fill-9" fill="#407F44" mask="url(#mask-2)"></path>
                </g>
                <path d="M36.5025,34.4932 C35.7175,35.4492 34.8105,36.3012 33.8085,37.0282 L39.6425,46.4732 C41.8075,45.0062 43.7345,43.2142 45.3555,41.1682 L36.5025,34.4932 Z" id="Fill-12" fill="#F9C213"></path>
                <g id="Group-16" transform="translate(39.000000, 23.832100)">
                    <mask id="mask-4" fill="white">
                        <use xlink:href="#path-3"></use>
                    </mask>
                    <g id="Clip-15"></g>
                    <path d="M0.7545,1.5796 C0.7545,2.6256 0.6425,3.6456 0.4255,4.6286 L11.0965,7.6936 C11.5825,5.7346 11.8425,3.6866 11.8425,1.5796 C11.8425,1.0556 11.8245,0.5366 11.7925,0.0186 L0.7445,1.0626 C0.7505,1.2356 0.7545,1.4066 0.7545,1.5796" id="Fill-14" fill="#EE402B" mask="url(#mask-4)"></path>
                </g>
                <path d="M14.5181,34.7042 L5.6871,41.4162 C7.3301,43.4382 9.2751,45.2022 11.4551,46.6412 L17.2881,37.2052 C16.2591,36.4952 15.3291,35.6532 14.5181,34.7042" id="Fill-17" fill="#F89D28"></path>
                <path d="M11.2672,23.1485 C11.4642,21.9005 11.8262,20.7075 12.3252,19.5895 L2.3982,14.6445 C1.3012,16.9785 0.5492,19.5045 0.2072,22.1565 L11.2672,23.1485 Z" id="Fill-19" fill="#1995D3"></path>
                <path d="M38.2847,47.3282 L32.4597,37.8952 C31.4007,38.4932 30.2617,38.9612 29.0587,39.2762 L31.1157,50.1882 C33.6737,49.6002 36.0847,48.6252 38.2847,47.3282" id="Fill-21" fill="#A11C43"></path>
                <path d="M39.0006,30.005 C38.6136,31.14 38.0926,32.211 37.4496,33.199 L46.3096,39.881 C47.7486,37.813 48.8856,35.522 49.6626,33.069 L39.0006,30.005 Z" id="Fill-23" fill="#27BCE1"></path>
                <path d="M27.4879,39.5948 C26.8139,39.6928 26.1239,39.7458 25.4209,39.7458 C24.8559,39.7458 24.2999,39.7108 23.7529,39.6468 L21.6979,50.5588 C22.9139,50.7378 24.1559,50.8318 25.4209,50.8318 C26.8239,50.8318 28.2009,50.7168 29.5429,50.4968 L27.4879,39.5948 Z" id="Fill-25" fill="#F16A2B"></path>
                <path d="M26.3375,11.107 C27.5685,11.186 28.7575,11.42 29.8845,11.792 L33.8695,1.434 C31.4985,0.597 28.9695,0.101 26.3375,0.009 L26.3375,11.107 Z" id="Fill-27" fill="#E7223B"></path>
                <path d="M22.1724,39.3736 C20.9304,39.0836 19.7494,38.6326 18.6544,38.0426 L12.8184,47.4836 C15.0634,48.7686 17.5184,49.7196 20.1204,50.2746 L22.1724,39.3736 Z" id="Fill-29" fill="#DC1768"></path>
                <path d="M21.1129,11.7403 C22.2639,11.3763 23.4779,11.1553 24.7339,11.0963 L24.7339,0.0003 C22.0669,0.0713 19.5049,0.5563 17.1009,1.3903 L21.1129,11.7403 Z" id="Fill-31" fill="#17486A"></path>
                <path d="M13.5465,33.4293 C12.8425,32.3893 12.2685,31.2503 11.8565,30.0393 L1.1925,33.1003 C1.9995,35.6433 3.1955,38.0133 4.7135,40.1413 L13.5465,33.4293 Z" id="Fill-33" fill="#C6972D"></path>
                <path d="M16.5406,14.169 C17.4776,13.427 18.5086,12.801 19.6136,12.309 L15.6036,1.964 C13.2156,2.967 11.0156,4.325 9.0636,5.97 L16.5406,14.169 Z" id="Fill-35" fill="#03699C"></path>
            </g>
        </g>
    </g>
</svg>