<?xml version="1.0" encoding="UTF-8"?>
<svg width="200px" height="32px" viewBox="0 0 200 32" version="1.1" xmlns="http://www.w3.org/2000/svg" xmlns:xlink="http://www.w3.org/1999/xlink">
    <!-- Generator: Sketch 50.2 (55047) - http://www.bohemiancoding.com/sketch -->
    <title>socialgoodus_logo</title>
    <desc>Created with Sketch.</desc>
    <defs>
        <polygon id="path-1" points="0.770551181 0.235863415 167.717008 0.235863415 167.717008 31.2195122 0.770551181 31.2195122"></polygon>
    </defs>
    <g id="homepage" stroke="none" stroke-width="1" fill="none" fill-rule="evenodd">
        <g id="good_emporium" transform="translate(-60.000000, -1745.000000)">
            <g id="socialgoodus_logo" transform="translate(60.000000, 1745.000000)">
                <g id="Group-3" transform="translate(31.496063, 0.553756)">
                    <mask id="mask-2" fill="white">
                        <use xlink:href="#path-1"></use>
                    </mask>
                    <g id="Clip-2"></g>
                    <path d="M167.531969,12.0087415 C166.903622,11.1650341 165.590236,10.4321561 163.831181,10.4321561 C161.905197,10.4321561 159.647717,11.4951805 159.647717,14.0091317 C159.647717,16.3576195 161.423307,17.1100098 163.164252,17.6430829 C164.830394,18.1566439 166.368189,18.6163512 166.368189,20.4333268 C166.368189,22.1035707 164.812283,22.947278 163.460315,22.947278 C162.090236,22.947278 161.034331,22.2315707 160.461102,21.3137171 L159.314646,22.1582049 C160.257953,23.4413268 161.849291,24.0828878 163.442205,24.0828878 C165.51622,24.0828878 167.717008,22.947278 167.717008,20.3412293 C167.717008,17.7351805 165.682362,17.1474732 163.831181,16.5418146 C162.367402,16.0641561 160.979213,15.6419122 160.979213,13.9904 C160.979213,12.3201561 162.478425,11.5498146 163.775276,11.5498146 C165.01622,11.5498146 165.923307,12.0633756 166.479213,12.8524488 L167.531969,12.0087415 Z M152.927244,24.0828878 C156.852441,24.0828878 157.831969,21.0756683 157.831969,18.9105951 L157.831969,10.7623024 L156.50126,10.7623024 L156.50126,18.7630829 C156.50126,20.8555707 155.594173,22.9105951 152.927244,22.9105951 C150.260315,22.9105951 149.353228,20.8555707 149.353228,18.7630829 L149.353228,10.7623024 L148.02252,10.7623024 L148.02252,18.9105951 C148.02252,21.0756683 149.002047,24.0828878 152.927244,24.0828878 Z M145.854016,22.2604488 C145.854016,21.3894244 145.163465,20.5800585 144.157953,20.5800585 C143.154016,20.5800585 142.464252,21.3894244 142.464252,22.2604488 C142.464252,23.1314732 143.154016,23.9400585 144.157953,23.9400585 C145.163465,23.9400585 145.854016,23.1314732 145.854016,22.2604488 Z M127.24378,16.2249366 C127.24378,13.8920585 128.655591,11.4350829 131.574488,11.4350829 C134.336693,11.4350829 135.998898,13.9544976 135.998898,16.2865951 C135.998898,18.6210341 134.336693,21.0780098 131.574488,21.0780098 C128.655591,21.0780098 127.24378,18.5585951 127.24378,16.2249366 Z M139.639843,0.235863415 L135.874488,0.235863415 L135.874488,10.7193756 L135.779213,10.7193756 C134.995748,9.75469268 133.488661,8.38571707 130.727244,8.38571707 C126.427244,8.38571707 123.415433,11.8081561 123.415433,16.2249366 C123.415433,20.5800585 126.239843,24.1882537 130.820945,24.1882537 C132.924094,24.1882537 134.964252,23.2243512 135.998898,21.513522 L136.06189,21.513522 L136.06189,23.753522 L139.639843,23.753522 L139.639843,0.235863415 Z M110.014646,16.2249366 C110.014646,13.8920585 111.394961,11.4350829 114.376063,11.4350829 C117.357953,11.4350829 118.738268,13.8920585 118.738268,16.2249366 C118.738268,18.5585951 117.357953,21.0780098 114.376063,21.0780098 C111.394961,21.0780098 110.014646,18.5585951 110.014646,16.2249366 Z M106.185512,16.2249366 C106.185512,20.9226927 109.825669,24.1882537 114.376063,24.1882537 C118.926457,24.1882537 122.568189,20.9226927 122.568189,16.2249366 C122.568189,11.527961 118.926457,8.38571707 114.376063,8.38571707 C109.825669,8.38571707 106.185512,11.527961 106.185512,16.2249366 Z M92.7540157,16.2249366 C92.7540157,13.8920585 94.1343307,11.4350829 97.1162205,11.4350829 C100.097323,11.4350829 101.478425,13.8920585 101.478425,16.2249366 C101.478425,18.5585951 100.097323,21.0780098 97.1162205,21.0780098 C94.1343307,21.0780098 92.7540157,18.5585951 92.7540157,16.2249366 Z M88.9248819,16.2249366 C88.9248819,20.9226927 92.5658268,24.1882537 97.1162205,24.1882537 C101.666614,24.1882537 105.307559,20.9226927 105.307559,16.2249366 C105.307559,11.527961 101.666614,8.38571707 97.1162205,8.38571707 C92.5658268,8.38571707 88.9248819,11.527961 88.9248819,16.2249366 Z M79.1335433,11.4350829 C81.864252,11.4350829 83.5902362,13.6126439 83.5902362,16.1937171 C83.5902362,18.6826927 81.895748,20.9226927 79.1028346,20.9226927 C76.403622,20.9226927 74.8028346,18.5585951 74.8028346,16.1937171 C74.8028346,13.5502049 76.403622,11.4350829 79.1335433,11.4350829 Z M83.5902362,8.82122927 L83.5902362,11.0612293 L83.5272441,11.0612293 C82.4288189,9.25752195 80.4516535,8.38571707 78.3492913,8.38571707 C73.7981102,8.38571707 70.9744882,11.9010341 70.9744882,16.2249366 C70.9744882,20.455961 73.8925984,24.0017171 78.4122835,24.0017171 C80.4831496,24.0017171 82.2406299,23.2243512 83.3390551,21.7624976 L83.4020472,21.7624976 L83.4020472,22.851278 C83.4020472,25.8069854 82.272126,27.9837659 78.6319685,27.9837659 C76.7485039,27.9837659 74.8028346,27.2376195 73.3595276,25.8686439 L71.1933858,28.7619122 C73.1398425,30.3486439 76.2154331,31.2196683 78.6634646,31.2196683 C84.5319685,31.2196683 87.168189,27.7972293 87.168189,22.4157659 L87.168189,8.82122927 L83.5902362,8.82122927 Z M66.4548031,23.753522 L68.5894488,23.753522 L68.5894488,0.235863415 L66.4548031,0.235863415 L66.4548031,23.753522 Z M60.7744882,16.4746927 L60.7744882,17.5626927 C60.7744882,20.1453268 59.08,22.3845463 56.0674016,22.3845463 C54.403622,22.3845463 52.6146457,21.7000585 52.6146457,19.6161561 C52.6146457,16.8469854 56.6634646,16.4746927 60.1469291,16.4746927 L60.7744882,16.4746927 Z M60.7744882,14.8247415 C55.4083465,14.8247415 50.4177953,15.2298146 50.4177953,19.7090341 C50.4177953,22.9449366 53.2737008,24.1265951 55.5020472,24.1265951 C57.8555906,24.1265951 59.487874,23.3180098 60.8374803,21.3894244 L60.899685,21.3894244 C60.899685,22.1667902 60.9949606,23.0378146 61.1193701,23.753522 L63.0343307,23.753522 C62.8768504,22.9449366 62.7831496,21.6071805 62.7831496,20.4871805 L62.7831496,14.1098146 C62.7831496,10.563278 60.2406299,8.82122927 57.0713386,8.82122927 C54.560315,8.82122927 52.4894488,9.72347317 51.2965354,10.9059122 L52.4894488,12.3053268 C53.5248819,11.2789854 55.1256693,10.5944976 56.8524409,10.5944976 C59.3941732,10.5944976 60.7744882,11.8393756 60.7744882,14.3587902 L60.7744882,14.8247415 Z M48.1587402,3.59586341 C48.1587402,2.72405854 47.4051969,2.10200976 46.6524409,2.10200976 C45.8988976,2.10200976 45.1461417,2.72405854 45.1461417,3.59586341 C45.1461417,4.4668878 45.8988976,5.08893659 46.6524409,5.08893659 C47.4051969,5.08893659 48.1587402,4.4668878 48.1587402,3.59586341 Z M45.5855118,23.753522 L47.7193701,23.753522 L47.7193701,9.19508293 L45.5855118,9.19508293 L45.5855118,23.753522 Z M43.9847244,11.3414244 C42.7288189,9.66181463 40.5004724,8.82122927 38.5240945,8.82122927 C33.7847244,8.82122927 30.6776378,12.0883512 30.6776378,16.4746927 C30.6776378,20.8602537 33.7847244,24.1265951 38.5240945,24.1265951 C41.0658268,24.1265951 42.8548031,23.1314732 44.1099213,21.6071805 L42.5099213,20.4247415 C41.6626772,21.5447415 40.3752756,22.3228878 38.5240945,22.3228878 C35.1028346,22.3228878 32.9374803,19.7714732 32.9374803,16.4746927 C32.9374803,13.1451317 35.1343307,10.5944976 38.5555906,10.5944976 C40.1555906,10.5944976 41.6303937,11.4038634 42.3217323,12.5230829 L43.9847244,11.3414244 Z M26.7862992,16.4746927 C26.7862992,19.7402537 24.6209449,22.3228878 21.2004724,22.3228878 C17.8107087,22.3228878 15.6453543,19.7402537 15.6453543,16.4746927 C15.6453543,13.2075707 17.8107087,10.5944976 21.2004724,10.5944976 C24.6209449,10.5944976 26.7862992,13.2075707 26.7862992,16.4746927 Z M29.0461417,16.4746927 C29.0461417,12.0883512 25.7823622,8.82122927 21.2004724,8.82122927 C16.6500787,8.82122927 13.3855118,12.0883512 13.3855118,16.4746927 C13.3855118,20.8602537 16.6500787,24.1265951 21.2004724,24.1265951 C25.7823622,24.1265951 29.0461417,20.8602537 29.0461417,16.4746927 Z M11.8485039,11.4350829 C10.9067717,9.78513171 8.74141732,8.82122927 6.70204724,8.82122927 C4.03433071,8.82122927 1.46031496,10.0973268 1.46031496,13.0522537 C1.46031496,15.8214244 3.93984252,16.5675707 5.66582677,16.9710829 C8.45952756,17.6251317 9.99732283,18.2471805 9.99732283,19.7714732 C9.99732283,21.6696195 8.36503937,22.3228878 6.54456693,22.3228878 C4.81858268,22.3228878 3.21779528,21.3269854 2.46503937,20.0516683 L0.770551181,21.2957659 C2.12015748,23.2555707 4.34771654,24.1265951 6.57606299,24.1265951 C9.27527559,24.1265951 12.099685,22.9449366 12.099685,19.6161561 C12.099685,17.3457171 10.4674016,16.0696195 7.01543307,15.3539122 C4.59889764,14.8567415 3.50047244,14.2346927 3.50047244,12.8657171 C3.50047244,11.2477659 5.06976378,10.5944976 6.60755906,10.5944976 C8.23984252,10.5944976 9.58944882,11.4350829 10.2162205,12.6471805 L11.8485039,11.4350829 Z" id="Fill-1" fill="#231F20" mask="url(#mask-2)"></path>
                </g>
                <path d="M26.4997638,8.66005854 C26.902126,8.76698537 27.1194488,8.98005854 27.233622,9.20796098 C27.3753543,9.42025366 27.4533071,9.71293659 27.3454331,10.1109854 L25.6509449,16.377522 C25.6509449,16.377522 25.3533071,17.4803512 24.2407087,17.1845463 L23.7084252,17.0424976 C23.7084252,17.0424976 22.5950394,16.7474732 22.8934646,15.6438634 L24.1572441,10.9687415 L19.4399213,9.71605854 C18.3273228,9.42025366 18.625748,8.31742439 18.625748,8.31742439 L18.7682677,7.78903415 C19.0659055,6.68620488 20.1792913,6.98200976 20.1792913,6.98200976 L26.4997638,8.66005854 Z" id="Fill-4" fill="#F89C1C"></path>
                <path d="M30.7274803,9.13560976 C31.5786614,8.64780488 31.8707874,7.56839024 31.3786614,6.72390244 C30.8873228,5.88019512 29.7983465,5.59141463 28.9471654,6.07843902 C28.0951969,6.56546341 27.8030709,7.64487805 28.2951969,8.48936585 C28.7865354,9.33385366 29.8755118,9.62263415 30.7274803,9.13560976" id="Fill-6" fill="#F89C1C"></path>
                <path d="M4.22299213,21.4085463 C4.11511811,21.8081561 4.19307087,22.100839 4.33480315,22.3115707 C4.44976378,22.5402537 4.66551181,22.7533268 5.06866142,22.8594732 L11.3891339,24.5390829 C11.3891339,24.5390829 12.5025197,24.8348878 12.8001575,23.7320585 L12.9426772,23.2036683 C12.9426772,23.2036683 13.2411024,22.100839 12.1285039,21.8050341 L7.4111811,20.5515707 L8.67496063,15.8764488 C8.97338583,14.772839 7.8607874,14.4778146 7.8607874,14.4778146 L7.32771654,14.3357659 C6.21511811,14.0407415 5.91669291,15.1443512 5.91669291,15.1443512 L4.22299213,21.4085463 Z" id="Fill-8" fill="#1BA1DB"></path>
                <path d="M2.67125984,25.1912585 C3.52322835,24.7042341 3.81456693,23.6248195 3.32322835,22.7803317 C2.83110236,21.9358439 1.74212598,21.6470634 0.89015748,22.1340878 C0.038976378,22.6218927 -0.252362205,23.7013073 0.238976378,24.5457951 C0.730314961,25.3895024 1.81929134,25.6790634 2.67125984,25.1912585" id="Fill-10" fill="#1BA1DB"></path>
                <path d="M22.9780315,26.2674732 C22.8701575,26.6663024 22.6551969,26.8809366 22.4252756,26.9941073 C22.2111024,27.1345951 21.9166142,27.2118634 21.514252,27.1049366 L15.1929921,25.4261073 C15.1929921,25.4261073 14.0803937,25.1310829 14.3788189,24.0282537 L14.5213386,23.4998634 C14.5213386,23.4998634 14.8189764,22.3962537 15.9315748,22.6920585 L20.6488976,23.9447415 L21.9134646,19.268839 C22.2111024,18.1660098 23.3237008,18.4618146 23.3237008,18.4618146 L23.8567717,18.6038634 C24.9701575,18.8988878 24.6717323,20.0017171 24.6717323,20.0017171 L22.9780315,26.2674732 Z" id="Fill-12" fill="#8CC540"></path>
                <path d="M22.4985827,30.4572878 C22.9907087,31.3017756 24.0788976,31.5905561 24.9308661,31.1035317 C25.7828346,30.6157268 26.0741732,29.5363122 25.5828346,28.6926049 C25.0907087,27.8481171 24.0017323,27.5585561 23.1505512,28.046361 C22.2985827,28.5341659 22.0064567,29.6135805 22.4985827,30.4572878" id="Fill-14" fill="#8CC540"></path>
                <path d="M10.1166142,4.1859122 C9.71346457,4.07898537 9.41897638,4.15625366 9.20480315,4.29752195 C8.97488189,4.4099122 8.75992126,4.62454634 8.65204724,5.0241561 L6.95834646,11.2891317 C6.95834646,11.2891317 6.65992126,12.3927415 7.77330709,12.6877659 L8.30637795,12.8290341 C8.30637795,12.8290341 9.41897638,13.124839 9.71661417,12.0220098 L10.9811811,7.34610732 L15.6977165,8.59879024 C16.8111024,8.89381463 17.1087402,7.79098537 17.1087402,7.79098537 L17.2520472,7.26337561 C17.549685,6.15976585 16.4370866,5.86474146 16.4370866,5.86474146 L10.1166142,4.1859122 Z" id="Fill-16" fill="#EA2134"></path>
                <path d="M6.30031496,2.64780488 C6.79244094,3.4915122 7.88062992,3.78107317 8.73259843,3.29326829 C9.58456693,2.8062439 9.87590551,1.72682927 9.38456693,0.882341463 C8.89244094,0.0386341463 7.80425197,-0.250926829 6.95228346,0.236878049 C6.10031496,0.723902439 5.80818898,1.80331707 6.30031496,2.64780488" id="Fill-18" fill="#EA2134"></path>
            </g>
        </g>
    </g>
</svg>