<?xml version="1.0" encoding="UTF-8"?>
<svg width="350px" height="60px" viewBox="0 0 350 60" version="1.1" xmlns="http://www.w3.org/2000/svg" xmlns:xlink="http://www.w3.org/1999/xlink">
    <!-- Generator: Sketch 50.2 (55047) - http://www.bohemiancoding.com/sketch -->
    <title>good_emporium_logo</title>
    <desc>Created with Sketch.</desc>
    <defs>
        <polygon id="path-1" points="0 60 350 60 350 0 0 0"></polygon>
    </defs>
    <g id="homepage" stroke="none" stroke-width="1" fill="none" fill-rule="evenodd">
        <g id="good_emporium" transform="translate(-37.000000, -30.000000)">
            <g id="good_emporium_logo" transform="translate(37.000000, 30.000000)">
                <path d="M70.0481988,31.8320942 C69.0937573,31.8320942 68.2292652,31.9901552 67.4547225,32.3058971 C66.6790506,32.622019 66.0162859,33.0589664 65.4649228,33.6148394 C64.9131834,34.1722322 64.4811255,34.8493107 64.1683728,35.6464546 C63.8552438,36.4443585 63.6986792,37.3243324 63.6986792,38.2871364 C63.6986792,39.1606511 63.8552438,39.9729933 64.1683728,40.7245427 C64.4811255,41.4776119 64.9207105,42.1398721 65.4871279,42.7109433 C66.0531689,43.2831544 66.7238371,43.73454 67.4995089,44.0654801 C68.2744281,44.3968002 69.109188,44.5617003 70.0034123,44.5617003 C70.9872096,44.5617003 71.8735304,44.3968002 72.6638802,44.0654801 C73.4534773,43.73454 74.1241455,43.2907535 74.6758849,42.7337406 C75.227248,42.1771077 75.6521551,41.5076283 75.9502298,40.7245427 C76.2479282,39.9425969 76.397342,39.0998585 76.397342,38.1970873 C76.397342,36.3011157 75.8309246,34.7661007 74.6984663,33.5924221 C73.5652553,32.4187435 72.0157934,31.8320942 70.0481988,31.8320942 Z M81.495098,27.4983365 L81.495098,47.2251794 C81.495098,49.1811837 81.255735,50.9491106 80.7796433,52.5293402 C80.3024226,54.1091898 79.5643864,55.4477685 78.5659112,56.5465961 C77.5670597,57.6450438 76.3081454,58.4950014 74.7880393,59.0972288 C73.2675569,59.6990763 71.4636776,60 69.3775306,60 C67.3802038,60 65.4871279,59.7439109 63.6986792,59.2324925 C61.9102306,58.7206942 60.2557651,57.7882865 58.7352826,56.4341297 L61.9550171,52.0099428 C63.028011,53.0031431 64.1457914,53.7706506 65.3083583,54.3124653 C66.4713015,54.8539001 67.812638,55.1248075 69.3327441,55.1248075 C70.6138634,55.1248075 71.6947608,54.9443292 72.5743072,54.5829927 C73.4534773,54.2220362 74.1542541,53.7254361 74.6758849,53.0935722 C75.1971394,52.4613284 75.5704856,51.70104 75.7940417,50.8138469 C76.0175977,49.9258939 76.1293758,48.9402927 76.1293758,47.8570432 L76.1293758,46.2771936 L76.0398028,46.2771936 C75.264131,47.3311866 74.2359235,48.1211114 72.9548042,48.646968 C71.6725558,49.1732046 70.3609515,49.4368929 69.019615,49.4368929 C67.4103123,49.4368929 65.948918,49.1439482 64.6380664,48.5569189 C63.3257094,47.9698896 62.2007782,47.1799648 61.2621438,46.1867645 C60.323133,45.1939441 59.5997748,44.0202656 59.0935745,42.6661087 C58.5862453,41.311572 58.3333333,39.866986 58.3333333,38.332351 C58.3333333,36.7376831 58.571191,35.2478826 59.0484117,33.8633295 C59.5248797,32.4795362 60.2256565,31.2754613 61.1499894,30.2522446 C62.0739459,29.2294079 63.1845755,28.4239049 64.4811255,27.8368757 C65.7780519,27.2502263 67.2605222,26.9565217 68.9304184,26.9565217 C70.4505245,26.9565217 71.8660033,27.2578254 73.1779839,27.859293 C74.4895882,28.4619003 75.5324735,29.4247043 76.3081454,30.7488448 L76.397342,30.7488448 L76.397342,27.4983365 L81.495098,27.4983365 Z" id="Fill-1" fill="#000000"></path>
                <path d="M90.2510958,38.2608696 C90.2510958,39.0983405 90.3911487,39.9059827 90.6727484,40.6834186 C90.9532277,41.461232 91.3674109,42.148804 91.9149244,42.7468897 C92.4620645,43.3453529 93.1201265,43.8233684 93.8894838,44.1824463 C94.6584677,44.5411467 95.5312775,44.7204969 96.5071662,44.7204969 C97.4838019,44.7204969 98.3558647,44.5411467 99.1252221,44.1824463 C99.894206,43.8233684 100.552268,43.3453529 101.099781,42.7468897 C101.646922,42.148804 102.060731,41.461232 102.342331,40.6834186 C102.62281,39.9059827 102.76361,39.0983405 102.76361,38.2608696 C102.76361,37.4241538 102.62281,36.6165115 102.342331,35.8383205 C102.060731,35.0612622 101.646922,34.3736903 101.099781,33.775227 C100.552268,33.1771413 99.894206,32.6983707 99.1252221,32.3392928 C98.3558647,31.9805924 97.4838019,31.8012422 96.5071662,31.8012422 C95.5312775,31.8012422 94.6584677,31.9805924 93.8894838,32.3392928 C93.1201265,32.6983707 92.4620645,33.1771413 91.9149244,33.775227 C91.3674109,34.3736903 90.9532277,35.0612622 90.6727484,35.8383205 C90.3911487,36.6165115 90.2510958,37.4241538 90.2510958,38.2608696 M84.9264706,38.2608696 C84.9264706,36.5564764 85.2297318,35.0087787 85.8362543,33.618154 C86.4420299,32.2275293 87.2629267,31.038532 88.2985714,30.0519172 C89.3338425,29.0649248 90.5618265,28.3022145 91.9814029,27.7641639 C93.4013527,27.2253582 94.9101895,26.9565217 96.5071662,26.9565217 C98.1048899,26.9565217 99.6133532,27.2253582 101.033303,27.7641639 C102.453253,28.3022145 103.68049,29.0649248 104.716135,30.0519172 C105.751032,31.038532 106.571929,32.2275293 107.178452,33.618154 C107.784601,35.0087787 108.088235,36.5564764 108.088235,38.2608696 C108.088235,39.9656403 107.784601,41.513338 107.178452,42.9039627 C106.571929,44.2945874 105.751032,45.4832072 104.716135,46.4701996 C103.68049,47.4568144 102.453253,48.2195246 101.033303,48.7579528 C99.6133532,49.2963809 98.1048899,49.5652174 96.5071662,49.5652174 C94.9101895,49.5652174 93.4013527,49.2963809 91.9814029,48.7579528 C90.5618265,48.2195246 89.3338425,47.4568144 88.2985714,46.4701996 C87.2629267,45.4832072 86.4420299,44.2945874 85.8362543,42.9039627 C85.2297318,41.513338 84.9264706,39.9656403 84.9264706,38.2608696" id="Fill-3" fill="#000000"></path>
                <path d="M115.986304,38.2608696 C115.986304,39.0983405 116.126355,39.9059827 116.40795,40.6834186 C116.688798,41.461232 117.102601,42.148804 117.650479,42.7468897 C118.197237,43.3453529 118.855288,43.8233684 119.625007,44.1824463 C120.393605,44.5411467 121.266401,44.7204969 122.242647,44.7204969 C123.218894,44.7204969 124.090942,44.5411467 124.860287,44.1824463 C125.629259,43.8233684 126.28731,43.3453529 126.834815,42.7468897 C127.381946,42.148804 127.795749,41.461232 128.077344,40.6834186 C128.357819,39.9059827 128.49899,39.0983405 128.49899,38.2608696 C128.49899,37.4241538 128.357819,36.6165115 128.077344,35.8383205 C127.795749,35.0612622 127.381946,34.3736903 126.834815,33.775227 C126.28731,33.1771413 125.629259,32.6983707 124.860287,32.3392928 C124.090942,31.9805924 123.218894,31.8012422 122.242647,31.8012422 C121.266401,31.8012422 120.393605,31.9805924 119.625007,32.3392928 C118.855288,32.6983707 118.197237,33.1771413 117.650479,33.775227 C117.102601,34.3736903 116.688798,35.0612622 116.40795,35.8383205 C116.126355,36.6165115 115.986304,37.4241538 115.986304,38.2608696 M110.661765,38.2608696 C110.661765,36.5564764 110.965021,35.0087787 111.571534,33.618154 C112.1773,32.2275293 112.998183,31.038532 114.034185,30.0519172 C115.069066,29.0649248 116.29703,28.3022145 117.716583,27.7641639 C119.136884,27.2253582 120.645323,26.9565217 122.242647,26.9565217 C123.839972,26.9565217 125.34841,27.2253582 126.768711,27.7641639 C128.188264,28.3022145 129.415482,29.0649248 130.45111,30.0519172 C131.486364,31.038532 132.306874,32.2275293 132.91376,33.618154 C133.519526,35.0087787 133.823529,36.5564764 133.823529,38.2608696 C133.823529,39.9656403 133.519526,41.513338 132.91376,42.9039627 C132.306874,44.2945874 131.486364,45.4832072 130.45111,46.4701996 C129.415482,47.4568144 128.188264,48.2195246 126.768711,48.7579528 C125.34841,49.2963809 123.839972,49.5652174 122.242647,49.5652174 C120.645323,49.5652174 119.136884,49.2963809 117.716583,48.7579528 C116.29703,48.2195246 115.069066,47.4568144 114.034185,46.4701996 C112.998183,45.4832072 112.1773,44.2945874 111.571534,42.9039627 C110.965021,41.513338 110.661765,39.9656403 110.661765,38.2608696" id="Fill-5" fill="#000000"></path>
                <path d="M140.904938,38.1522156 C140.904938,38.9977361 141.046072,39.8131411 141.329845,40.5980495 C141.612489,41.383339 142.029869,42.0775197 142.581609,42.681354 C143.132972,43.2855695 143.796113,43.7681795 144.571408,44.1307088 C145.346327,44.4928569 146.225874,44.6739309 147.209295,44.6739309 C148.193468,44.6739309 149.072262,44.4928569 149.847557,44.1307088 C150.622477,43.7681795 151.285618,43.2855695 151.837357,42.681354 C152.38872,42.0775197 152.805724,41.383339 153.089497,40.5980495 C153.372141,39.8131411 153.514028,38.9977361 153.514028,38.1522156 C153.514028,37.3074575 153.372141,36.4920525 153.089497,35.7063818 C152.805724,34.9218546 152.38872,34.2276739 151.837357,33.6234584 C151.285618,33.0196241 150.622477,32.5362517 149.847557,32.1737224 C149.072262,31.8115743 148.193468,31.6305003 147.209295,31.6305003 C146.225874,31.6305003 145.346327,31.8115743 144.571408,32.1737224 C143.796113,32.5362517 143.132972,33.0196241 142.581609,33.6234584 C142.029869,34.2276739 141.612489,34.9218546 141.329845,35.7063818 C141.046072,36.4920525 140.904938,37.3074575 140.904938,38.1522156 Z M153.603601,45.7607564 L153.514028,45.7607564 C152.738732,47.0900305 151.695471,48.0560129 150.384243,48.659466 C149.072262,49.262919 147.656783,49.5652174 146.136301,49.5652174 C144.466781,49.5652174 142.983934,49.2709244 141.687384,48.6823385 C140.390834,48.0937525 139.279828,47.2859717 138.356248,46.2593771 C137.431915,45.2331638 136.731138,44.025114 136.25467,42.6359902 C135.77745,41.2476288 135.539216,39.7529102 135.539216,38.1522156 C135.539216,36.5522835 135.792504,35.0575649 136.299457,33.668441 C136.806033,32.2800796 137.513585,31.0720298 138.42324,30.0454353 C139.332142,29.019222 140.427717,28.2110599 141.709966,27.6220927 C142.991085,27.0335068 144.392639,26.7392138 145.913121,26.7392138 C146.925898,26.7392138 147.820122,26.8451898 148.595794,27.0563793 C149.370713,27.26795 150.055683,27.5397517 150.652585,27.8714031 C151.248358,28.2038169 151.754935,28.5587221 152.172691,28.9357373 C152.589695,29.3135149 152.932556,29.682906 153.201275,30.0454353 L153.335258,30.0454353 L153.335258,14.7826087 L158.70098,14.7826087 L158.70098,49.0219953 L153.603601,49.0219953 L153.603601,45.7607564 Z" id="Fill-7" fill="#000000"></path>
                <path d="M180.077933,36.0815424 C180.077933,35.1575945 179.89407,34.2923817 179.527457,33.4870335 C179.159732,32.6816853 178.661153,31.9738524 178.029866,31.3624052 C177.398209,30.7513345 176.649413,30.2663937 175.784221,29.9087121 C174.917545,29.5506541 174.000086,29.3718133 173.03147,29.3718133 C171.592448,29.3718133 170.395858,29.6700068 169.442071,30.2663937 C168.487542,30.8635336 167.731332,31.5487761 167.173813,32.3240037 C166.615923,33.0999844 166.219655,33.8526217 165.985008,34.583045 C165.749619,35.3138448 165.632481,35.813093 165.632481,36.0815424 L180.077933,36.0815424 Z M182.103759,44.2671783 C181.075462,45.8481307 179.806217,46.9814164 178.294169,47.6670354 C176.78175,48.3526544 175.115494,48.6956522 173.295773,48.6956522 C171.738871,48.6956522 170.329875,48.4275793 169.067673,47.8906805 C167.8051,47.3537817 166.718605,46.6011444 165.808559,45.6316392 C164.898513,44.662887 164.201243,43.5145411 163.71675,42.1873543 C163.232628,40.8609206 162.990196,39.3917908 162.990196,37.7810944 C162.990196,36.2310156 163.2393,34.7995364 163.738992,33.4870335 C164.237942,32.1752835 164.942254,31.0344677 165.852671,30.0649625 C166.762717,29.0962103 167.834755,28.3360429 169.067673,27.7837073 C170.300961,27.2325013 171.666216,26.9565217 173.163436,26.9565217 C174.719226,26.9565217 176.092265,27.2325013 177.281441,27.7837073 C178.470247,28.3360429 179.468147,29.0664663 180.275882,29.9757304 C181.083247,30.8857475 181.692292,31.9215179 182.103759,33.0845476 C182.514484,34.2475774 182.720588,35.4256674 182.720588,36.6184412 L182.720588,38.4972105 L165.632481,38.4972105 C165.632481,39.0638533 165.742576,39.787123 165.962766,40.6666431 C166.182957,41.5465396 166.586268,42.4038458 167.173813,43.2385615 C167.760988,44.0736538 168.546111,44.7893933 169.530295,45.3854037 C170.513738,45.9825436 171.783354,46.2799841 173.339514,46.2799841 C174.689941,46.2799841 175.996627,45.9524231 177.2592,45.2961716 C178.521402,44.6402966 179.490388,43.7457163 180.165787,42.6124306 L182.103759,44.2671783 Z" id="Fill-9" fill="#000000"></path>
                <path d="M187.231327,33.4689188 C187.231327,33.0720757 187.21641,32.590305 187.187321,32.0239928 C187.157486,31.4588387 187.13511,30.8855779 187.120566,30.3042104 C187.105648,29.724001 187.083272,29.1808509 187.054183,28.6763041 C187.024348,28.1717574 187.009804,27.7818629 187.009804,27.5066205 L189.668456,27.5066205 C189.697172,28.302237 189.719548,29.0661987 189.734838,29.7996637 C189.749383,30.5335147 189.786303,31.0079508 189.8456,31.2214277 L189.978364,31.2214277 C190.510169,30.0598507 191.396262,29.058864 192.637016,28.2176955 C193.877397,27.376913 195.324384,26.9565217 196.979095,26.9565217 C198.336951,26.9565217 199.577705,27.3163056 200.700611,28.0343293 C201.822772,28.7527389 202.635024,29.9224226 203.137367,31.5426081 C203.787392,29.9533053 204.754785,28.7909563 206.039918,28.0571053 C207.324678,27.3232542 208.676194,26.9565217 210.094091,26.9565217 C211.689133,26.9565217 212.988438,27.2163228 213.993124,27.7359248 C214.996692,28.2562989 215.787313,28.9361052 216.363124,29.7768877 C216.939309,30.6184422 217.337976,31.5885462 217.559499,32.6891297 C217.781395,33.7900993 217.892157,34.9215656 217.892157,36.0831425 L217.892157,48.6956522 L215.233505,48.6956522 L215.233505,36.2205707 C215.233505,35.3651189 215.159664,34.531671 215.011982,33.7213852 C214.863927,32.9114854 214.605483,32.184583 214.236651,31.5426081 C213.867072,30.9006333 213.350558,30.3887519 212.685988,30.006192 C212.021418,29.6244042 211.157328,29.4329312 210.094091,29.4329312 C208.853338,29.4329312 207.834107,29.6699562 207.036772,30.1436202 C206.239065,30.6184422 205.611416,31.2214277 205.153825,31.9556647 C204.695115,32.6891297 204.370662,33.4847462 204.178601,34.3405841 C203.986539,35.196808 203.891068,36.0070938 203.891068,36.7710555 L203.891068,48.6956522 L201.232416,48.6956522 L201.232416,35.9457143 C201.232416,33.989293 200.884841,32.4142734 200.191182,31.2214277 C199.496778,30.028968 198.426082,29.4329312 196.979095,29.4329312 C196.003871,29.4329312 195.080858,29.6089628 194.209682,29.9602539 C193.338134,30.3123171 192.584805,30.8473605 191.95007,31.5653842 C191.31459,32.2845659 190.812992,33.1867278 190.443787,34.271484 C190.073836,35.3570122 189.889979,36.6336273 189.889979,38.1013293 L189.889979,48.6956522 L187.231327,48.6956522 L187.231327,33.4689188 Z" id="Fill-11" fill="#000000"></path>
                <path d="M225.497336,38.0936752 C225.497336,39.2853159 225.724912,40.4082897 226.180063,41.4622108 C226.635213,42.5165177 227.257023,43.433105 228.046258,44.2123586 C228.834726,44.9916121 229.760352,45.61 230.822371,46.0682936 C231.884773,46.5265873 233.037591,46.7557341 234.281977,46.7557341 C235.556629,46.7557341 236.709831,46.5265873 237.741583,46.0682936 C238.772568,45.61 239.652986,44.9916121 240.381687,44.2123586 C241.109622,43.433105 241.662852,42.5165177 242.043294,41.4622108 C242.42182,40.4082897 242.611849,39.2853159 242.611849,38.0936752 C242.611849,36.9020345 242.42182,35.7790607 242.043294,34.7251395 C241.662852,33.6708326 241.109622,32.7542453 240.381687,31.9749917 C239.652986,31.196124 238.772568,30.5773504 237.741583,30.1190567 C236.709831,29.660763 235.556629,29.4312304 234.281977,29.4312304 C233.037591,29.4312304 231.884773,29.660763 230.822371,30.1190567 C229.760352,30.5773504 228.834726,31.196124 228.046258,31.9749917 C227.257023,32.7542453 226.635213,33.6708326 226.180063,34.7251395 C225.724912,35.7790607 225.497336,36.9020345 225.497336,38.0936752 Z M223.039216,27.5066285 L225.770504,27.5066285 L225.770504,31.2188843 L225.861304,31.2188843 C226.286188,30.4855373 226.817197,29.8517187 227.454332,29.3170428 C228.091466,28.7827526 228.781472,28.3395039 229.525881,27.9876825 C230.268757,27.6370184 231.050329,27.37701 231.869831,27.208429 C232.688949,27.0410052 233.492359,26.9565217 234.281977,26.9565217 C235.889946,26.9565217 237.369186,27.2315751 238.72008,27.7816818 C240.069824,28.3314028 241.238351,29.1033267 242.224895,30.0962963 C243.210671,31.0892659 243.977302,32.2658616 244.523636,33.6253119 C245.06997,34.9847621 245.343137,36.4746023 245.343137,38.0936752 C245.343137,39.7135195 245.06997,41.2033597 244.523636,42.5620384 C243.977302,43.9222602 243.210671,45.0988559 242.224895,46.0914398 C241.238351,47.0847952 240.069824,47.8559476 238.72008,48.4056685 C237.369186,48.9557752 235.889946,49.2308286 234.281977,49.2308286 C233.492359,49.2308286 232.688949,49.1463452 231.869831,48.9785356 C231.050329,48.8103403 230.268757,48.5511035 229.525881,48.1996678 C228.781472,47.8490037 228.091466,47.4053693 227.454332,46.8703076 C226.817197,46.3364032 226.286188,45.701813 225.861304,44.968466 L225.770504,44.968466 L225.770504,59.1304348 L223.039216,59.1304348 L223.039216,27.5066285 Z" id="Fill-13" fill="#000000"></path>
                <path d="M250.564601,37.826087 C250.564601,38.9890965 250.747717,40.0850891 251.115805,41.113688 C251.483894,42.1426635 252.020984,43.0372284 252.726703,43.7977591 C253.432795,44.5582898 254.285973,45.1618199 255.286237,45.6091023 C256.285388,46.0563847 257.404511,46.2800259 258.640263,46.2800259 C259.875272,46.2800259 260.993281,46.0563847 261.993917,45.6091023 C262.993811,45.1618199 263.846989,44.5582898 264.552708,43.7977591 C265.259542,43.0372284 265.795889,42.1426635 266.163606,41.113688 C266.531695,40.0850891 266.715182,38.9890965 266.715182,37.826087 C266.715182,36.6630774 266.531695,35.5670848 266.163606,34.5384859 C265.795889,33.5095104 265.259542,32.6149456 264.552708,31.8544148 C263.846989,31.0942606 262.993811,30.4903541 261.993917,30.0430716 C260.993281,29.5957892 259.875272,29.3717715 258.640263,29.3717715 C257.404511,29.3717715 256.285388,29.5957892 255.286237,30.0430716 C254.285973,30.4903541 253.432795,31.0942606 252.726703,31.8544148 C252.020984,32.6149456 251.483894,33.5095104 251.115805,34.5384859 C250.747717,35.5670848 250.564601,36.6630774 250.564601,37.826087 M247.916667,37.826087 C247.916667,36.245915 248.181497,34.7918706 248.711158,33.4650834 C249.24082,32.1382961 249.975511,30.98997 250.917461,30.0208581 C251.858668,29.0517462 252.991534,28.298369 254.315316,27.761856 C255.639097,27.2249665 257.080251,26.9565217 258.640263,26.9565217 C260.198418,26.9565217 261.632886,27.2249665 262.942925,27.761856 C264.251106,28.298369 265.3836,29.0517462 266.340408,30.0208581 C267.296101,30.98997 268.039335,32.1382961 268.569368,33.4650834 C269.098286,34.7918706 269.362745,36.245915 269.362745,37.826087 C269.362745,39.4070119 269.098286,40.8610563 268.569368,42.1870906 C268.039335,43.5146308 267.296101,44.6629569 266.340408,45.6316923 C265.3836,46.6011807 264.251106,47.3538049 262.942925,47.8903179 C261.632886,48.4272074 260.198418,48.6956522 258.640263,48.6956522 C257.080251,48.6956522 255.639097,48.4272074 254.315316,47.8903179 C252.991534,47.3538049 251.858668,46.6011807 250.917461,45.6316923 C249.975511,44.6629569 249.24082,43.5146308 248.711158,42.1870906 C248.181497,40.8610563 247.916667,39.4070119 247.916667,37.826087" id="Fill-15" fill="#000000"></path>
                <path d="M273.878991,33.4689188 C273.878991,33.0720757 273.863347,32.590305 273.833585,32.0239928 C273.80306,31.4588387 273.780548,30.8855779 273.765667,30.3042104 C273.750023,29.724001 273.72751,29.1808509 273.697367,28.6763041 C273.667223,28.1717574 273.651961,27.7818629 273.651961,27.5066205 L276.372128,27.5066205 C276.401508,28.302237 276.424402,29.0661987 276.440428,29.7996637 C276.454927,30.5335147 276.492702,31.0079508 276.553752,31.2214277 C277.248198,29.9683606 278.140294,28.9442119 279.228132,28.1489814 C280.31597,27.354137 281.645338,26.9565217 283.21738,26.9565217 C283.489435,26.9565217 283.753858,26.9792978 284.010651,27.0252358 C284.267443,27.0711739 284.531867,27.1248327 284.803922,27.1858261 L284.486842,29.8915398 C284.123975,29.769553 283.775989,29.7081736 283.443647,29.7081736 C282.265379,29.7081736 281.245459,29.8992605 280.383888,30.2814344 C279.522699,30.6639943 278.812228,31.191703 278.253618,31.8637886 C277.693865,32.5366462 277.278723,33.324156 277.00705,34.2255459 C276.734614,35.1277078 276.598777,36.0985839 276.598777,37.137788 L276.598777,48.6956522 L273.878991,48.6956522 L273.878991,33.4689188 Z" id="Fill-17" fill="#000000"></path>
                <mask id="mask-2" fill="white">
                    <use xlink:href="#path-1"></use>
                </mask>
                <g id="Clip-20"></g>
                <path d="M287.23441,48.6956522 L290.09362,48.6956522 L290.09362,27.7353298 L287.23441,27.7353298 L287.23441,48.6956522 Z M286.519608,19.4327677 C286.519608,18.858821 286.725785,18.374613 287.138943,17.9809077 C287.551699,17.588348 288.059923,17.3913043 288.664015,17.3913043 C289.267305,17.3913043 289.77593,17.588348 290.189489,17.9809077 C290.601443,18.374613 290.808824,18.858821 290.808824,19.4327677 C290.808824,20.0074782 290.601443,20.4916862 290.189489,20.8846278 C289.77593,21.2783331 289.267305,21.4742311 288.664015,21.4742311 C288.059923,21.4742311 287.551699,21.2783331 287.138943,20.8846278 C286.725785,20.4916862 286.519608,20.0074782 286.519608,19.4327677 Z" id="Fill-19" fill="#000000" mask="url(#mask-2)"></path>
                <path d="M312.888133,43.0525499 C312.888133,43.4501581 312.903259,43.9315342 312.933509,44.4970643 C312.962626,45.0633664 312.985314,45.636617 313.000439,46.2172022 C313.015565,46.7981733 313.037874,47.3405418 313.068125,47.8454655 C313.09762,48.3496173 313.112745,48.7395049 313.112745,49.0147424 L310.417402,49.0147424 C310.38753,48.2199121 310.364464,47.4555779 310.350094,46.7213539 C310.334969,45.9879019 310.297534,45.5138603 310.237788,45.2996151 L310.103173,45.2996151 C309.563953,46.4623295 308.665505,47.4632984 307.40783,48.304066 C306.149776,49.1444476 304.681858,49.5652174 303.004454,49.5652174 C301.38755,49.5652174 300.062189,49.305035 299.029126,48.7854421 C297.995684,48.2658493 297.18761,47.5856691 296.603015,46.7441295 C296.019175,45.904134 295.622134,44.9328891 295.412647,43.8323252 C295.202404,42.7313751 295.098039,41.600701 295.098039,40.4383727 L295.098039,27.826087 L297.79376,27.826087 L297.79376,40.3009469 C297.79376,41.1571556 297.868253,41.9905887 298.018372,42.800474 C298.167735,43.6107455 298.429782,44.3364769 298.804514,44.9788264 C299.178489,45.6207899 299.702961,46.1330482 300.376797,46.5152153 C301.050633,46.8977684 301.92677,47.0884659 303.004454,47.0884659 C303.993275,47.0884659 304.92878,46.9128234 305.81248,46.5607665 C306.695803,46.2098676 307.459634,45.6744477 308.103975,44.9556648 C308.74756,44.2376539 309.256529,43.335508 309.631261,42.249999 C310.005236,41.1648761 310.19279,39.8878977 310.19279,38.4202217 L310.19279,27.826087 L312.888133,27.826087 L312.888133,43.0525499 Z" id="Fill-21" fill="#000000" mask="url(#mask-2)"></path>
                <path d="M318.481327,33.4689188 C318.481327,33.0720757 318.46641,32.590305 318.437321,32.0239928 C318.407486,31.4588387 318.385483,30.8855779 318.370566,30.3042104 C318.355648,29.724001 318.333645,29.1808509 318.30381,28.6763041 C318.274721,28.1717574 318.259804,27.7818629 318.259804,27.5066205 L320.918456,27.5066205 C320.947172,28.302237 320.969548,29.0661987 320.985211,29.7996637 C320.999383,30.5335147 321.036303,31.0079508 321.095973,31.2214277 L321.228364,31.2214277 C321.760542,30.0598507 322.646635,29.058864 323.887016,28.2176955 C325.127397,27.376913 326.574384,26.9565217 328.229095,26.9565217 C329.587324,26.9565217 330.827705,27.3163056 331.950984,28.0343293 C333.073145,28.7527389 333.885397,29.9224226 334.38774,31.5426081 C335.037019,29.9533053 336.004785,28.7909563 337.289918,28.0571053 C338.574678,27.3232542 339.926194,26.9565217 341.343719,26.9565217 C342.939133,26.9565217 344.238438,27.2163228 345.243124,27.7359248 C346.247064,28.2562989 347.037313,28.9361052 347.613497,29.7768877 C348.189309,30.6184422 348.587976,31.5885462 348.809872,32.6891297 C349.031395,33.7900993 349.142157,34.9215656 349.142157,36.0831425 L349.142157,48.6956522 L346.483878,48.6956522 L346.483878,36.2205707 C346.483878,35.3651189 346.409664,34.531671 346.261982,33.7213852 C346.113927,32.9114854 345.855856,32.184583 345.486651,31.5426081 C345.116699,30.9006333 344.600558,30.3887519 343.935988,30.006192 C343.271418,29.6244042 342.407328,29.4329312 341.343719,29.4329312 C340.103338,29.4329312 339.084107,29.6699562 338.286772,30.1436202 C337.489438,30.6184422 336.861043,31.2214277 336.403825,31.9556647 C335.945488,32.6891297 335.620662,33.4847462 335.428974,34.3405841 C335.236539,35.196808 335.140695,36.0070938 335.140695,36.7710555 L335.140695,48.6956522 L332.482416,48.6956522 L332.482416,35.9457143 C332.482416,33.989293 332.134841,32.4142734 331.441182,31.2214277 C330.747151,30.028968 329.676082,29.4329312 328.229095,29.4329312 C327.253871,29.4329312 326.330858,29.6089628 325.460055,29.9602539 C324.588506,30.3123171 323.834805,30.8473605 323.200443,31.5653842 C322.56459,32.2845659 322.062992,33.1867278 321.693787,34.271484 C321.324209,35.3570122 321.139979,36.6336273 321.139979,38.1013293 L321.139979,48.6956522 L318.481327,48.6956522 L318.481327,33.4689188 Z" id="Fill-22" fill="#000000" mask="url(#mask-2)"></path>
                <path d="M10.9699664,25.7966816 C11.1684184,26.2213946 11.250134,26.7064574 11.1804687,27.2054762 C10.2661585,33.7459042 13.1939845,40.3828922 18.6395525,44.1144062 C19.7813105,44.8966927 20.0739048,46.4590026 19.2925236,47.6030117 C18.5111424,48.7470208 16.9517691,49.0397181 15.8100111,48.2566773 C8.8073292,43.4581003 5.04201319,34.9215971 6.21766241,26.5099428 C6.40971273,25.136981 7.67611515,24.1800568 9.04645068,24.3724224 C9.91858508,24.4942539 10.6227696,25.0528683 10.9699664,25.7966816" id="Fill-23" fill="#EA2033" mask="url(#mask-2)"></path>
                <path d="M47.8010284,38.8679504 C48.1498299,39.628137 48.1263747,40.5467601 47.658784,41.3123435 C42.7884251,49.2827381 33.4282869,53.4984586 24.366635,51.8023018 C22.9990455,51.5467219 22.0948854,50.2094565 22.3457047,48.816295 C22.5969023,47.4231336 23.9088803,46.5010411 25.2760915,46.7570066 C32.3213527,48.0757684 39.5985178,44.7979456 43.3850195,38.6011912 C44.1200752,37.3984619 45.6722798,37.0303188 46.8522277,37.7793262 C47.2812309,38.0514822 47.6020375,38.4338885 47.8010284,38.8679504" id="Fill-24" fill="#18A1DB" mask="url(#mask-2)"></path>
                <path d="M49.2906455,19.1118442 C51.1352697,22.9895531 51.8771044,27.3768821 51.2540552,31.7540414 C51.059017,33.1247051 49.7703857,34.0802901 48.3756138,33.8885704 C46.9816083,33.6964741 46.0090998,32.4290151 46.2041379,31.0591048 C47.2103662,23.9948571 43.6418193,16.8921901 37.3254951,13.3839842 C36.099322,12.7029839 35.667096,11.1741233 36.3595006,9.96956639 C37.0522885,8.7642562 38.6076124,8.33938436 39.8334023,9.02038462 C44.0441574,11.3586864 47.3057778,14.9399643 49.2906455,19.1118442" id="Fill-25" fill="#8BC540" mask="url(#mask-2)"></path>
                <path d="M33.2203424,7.6589729 C33.4044538,8.06015662 33.4887594,8.51567936 33.4441493,8.98854432 C33.3110749,10.3982754 32.0824052,11.4311019 30.6998682,11.2954471 C24.1062595,10.6487744 17.5859929,13.9322377 14.0874977,19.6601856 C13.3533203,20.8625806 11.801794,21.230236 10.6226492,20.4818222 C9.44312626,19.7334084 9.08246445,18.1521818 9.81664185,16.9497868 C14.3162193,9.58241956 22.7025516,5.35900703 31.1811287,6.19066359 C32.1001736,6.28084321 32.8559,6.86392773 33.2203424,7.6589729" id="Fill-26" fill="#F89C1C" mask="url(#mask-2)"></path>
                <path d="M1.73096848,38.5481181 C3.23271094,37.8361571 5.01921062,38.4932393 5.72153958,40.0155771 C6.42386855,41.5375491 5.77567594,43.3489152 4.27393348,44.0605103 C2.77255193,44.7724712 0.985691342,44.115755 0.283362377,42.5934171 C-0.418966588,41.0710793 0.229226023,39.260079 1.73096848,38.5481181" id="Fill-27" fill="#EA2033" mask="url(#mask-2)"></path>
                <path d="M52.3437136,14.200292 C53.845456,13.488331 55.6319557,14.1454132 56.3342847,15.667751 C57.0366136,17.189723 56.388421,19.0010891 54.8866786,19.7126842 C53.385297,20.4246451 51.5984364,19.7679289 50.8961075,18.245591 C50.1937785,16.7232532 50.8419711,14.9122529 52.3437136,14.200292" id="Fill-28" fill="#8BC540" mask="url(#mask-2)"></path>
                <path d="M19.447006,1.75462147 C20.1493755,3.27688463 19.5011455,5.08779611 17.9996774,5.79972211 C16.4978484,6.51164812 14.7108848,5.85459822 14.0088763,4.33233506 C13.3065069,2.81043773 13.9547368,0.999160416 15.4562049,0.287234409 C16.9580339,-0.424691598 18.7449975,0.232358304 19.447006,1.75462147" id="Fill-29" fill="#F89C1C" mask="url(#mask-2)"></path>
                <path d="M43.4666237,53.9285345 C44.1689871,55.4507977 43.5207627,57.2617091 42.0189466,57.9736352 C40.5174914,58.6855612 38.7305432,58.0285113 38.0285407,56.5062481 C37.3261773,54.9843508 37.9740408,53.1730735 39.4758569,52.4611475 C40.977673,51.7492214 42.7642603,52.4062713 43.4666237,53.9285345" id="Fill-30" fill="#18A1DB" mask="url(#mask-2)"></path>
            </g>
        </g>
    </g>
</svg>