<svg xmlns="http://www.w3.org/2000/svg" xmlns:xlink="http://www.w3.org/1999/xlink" xml:space="preserve" style="shape-rendering:geometricPrecision;text-rendering:geometricPrecision;image-rendering:optimizeQuality;" viewBox="0 0 100 125" x="0px" y="0px" fill-rule="evenodd" clip-rule="evenodd"><defs><style type="text/css">
   
    .fil0 {fill:black}
   
  </style></defs><g><path class="fil0" d="M37.2345 4.93232c17.7994,0 32.2349,14.1816 32.2349,31.6691 0,17.4875 -14.4355,31.6691 -32.2349,31.6691 -17.8005,0 -32.2349,-14.1816 -32.2349,-31.6691 0,-17.4875 14.4344,-31.6691 32.2349,-31.6691zm22.2167 60.3713l5.78508 -5.7839 29.764 29.764 -5.7839 5.78508 -29.7652 -29.7652zm-22.2167 -53.9225c14.2383,0 25.786,11.295 25.786,25.2203 0,13.9265 -11.5477,25.2203 -25.786,25.2203 -14.2395,0 -25.786,-11.2938 -25.786,-25.2203 0,-13.9253 11.5465,-25.2203 25.786,-25.2203z"/></g><text x="0" y="115" fill="#000000" font-size="5px" font-weight="bold" font-family="'Helvetica Neue', Helvetica, Arial-Unicode, Arial, Sans-serif">Created by Reinnardio</text><text x="0" y="120" fill="#000000" font-size="5px" font-weight="bold" font-family="'Helvetica Neue', Helvetica, Arial-Unicode, Arial, Sans-serif">from the Noun Project</text></svg>