<?xml version="1.0" encoding="UTF-8" standalone="no"?>
<svg
   xmlns:dc="http://purl.org/dc/elements/1.1/"
   xmlns:cc="http://creativecommons.org/ns#"
   xmlns:rdf="http://www.w3.org/1999/02/22-rdf-syntax-ns#"
   xmlns:svg="http://www.w3.org/2000/svg"
   xmlns="http://www.w3.org/2000/svg"
   viewBox="0 0 373.88 204.82668"
   height="204.82668"
   width="373.88"
   xml:space="preserve"
   id="svg2"
   version="1.1"><metadata
     id="metadata8"><rdf:RDF><cc:Work
         rdf:about=""><dc:format>image/svg+xml</dc:format><dc:type
           rdf:resource="http://purl.org/dc/dcmitype/StillImage" /></cc:Work></rdf:RDF></metadata><defs
     id="defs6" /><g
     transform="matrix(1.3333333,0,0,-1.3333333,0,204.82667)"
     id="g10"><g
       transform="scale(0.1)"
       id="g12"><path
         id="path14"
         style="fill:#231f20;fill-opacity:1;fill-rule:nonzero;stroke:none"
         d="m 2800.99,325.531 c -10.55,14.297 -32.62,26.707 -62.17,26.707 -32.35,0 -70.25,-18 -70.25,-60.609 0,-39.797 29.81,-52.551 59.05,-61.57 28,-8.707 53.82,-16.489 53.82,-47.278 0,-28.301 -26.13,-42.601 -48.84,-42.601 -23.02,0 -40.75,12.129 -50.38,27.679 l -19.25,-14.308 c 15.84,-21.75 42.57,-32.61 69.32,-32.61 34.84,0 71.81,19.239 71.81,63.399 0,44.16 -34.17,54.109 -65.28,64.379 -24.57,8.082 -47.9,15.242 -47.9,43.23 0,28.301 25.19,41.36 46.97,41.36 20.84,0 36.08,-8.707 45.41,-22.079 l 17.69,14.301 z m -245.31,-204.59 c 65.93,0 82.38,50.95 82.38,87.637 v 138.063 h -22.35 V 211.07 c 0,-35.449 -15.24,-70.269 -60.03,-70.269 -44.79,0 -60.03,34.82 -60.03,70.269 V 346.641 H 2473.3 V 208.578 c 0,-36.687 16.45,-87.637 82.38,-87.637 z m -118.81,30.879 c 0,14.758 -11.6,28.461 -28.47,28.461 -16.87,0 -28.46,-13.703 -28.46,-28.461 0,-14.761 11.59,-28.468 28.46,-28.468 16.87,0 28.47,13.707 28.47,28.468 z m -312.58,102.258 c 0,39.531 23.72,81.184 72.74,81.184 46.39,0 74.32,-42.703 74.32,-82.231 0,-39.543 -27.93,-81.179 -74.32,-81.179 -49.02,0 -72.74,42.699 -72.74,82.226 z M 2332.5,525.02 h -63.25 V 347.379 h -1.59 c -13.17,16.34 -38.48,39.543 -84.86,39.543 -72.22,0 -122.82,-57.992 -122.82,-132.844 0,-73.797 47.44,-134.937 124.4,-134.937 35.32,0 69.58,16.339 86.97,45.328 h 1.06 V 126.52 h 60.09 v 398.5 z M 1834.9,254.078 c 0,39.531 23.19,81.184 73.27,81.184 50.08,0 73.27,-41.653 73.27,-81.184 0,-39.527 -23.19,-82.226 -73.27,-82.226 -50.08,0 -73.27,42.699 -73.27,82.226 z m -64.31,0 c 0,-79.598 61.15,-134.937 137.58,-134.937 76.43,0 137.58,55.339 137.58,134.937 0,79.602 -61.15,132.844 -137.58,132.844 -76.43,0 -137.58,-53.242 -137.58,-132.844 z m -225.6,0 c 0,39.531 23.19,81.184 73.27,81.184 50.08,0 73.27,-41.653 73.27,-81.184 0,-39.527 -23.19,-82.226 -73.27,-82.226 -50.08,0 -73.27,42.699 -73.27,82.226 z m -64.31,0 c 0,-79.598 61.15,-134.937 137.58,-134.937 76.43,0 137.58,55.339 137.58,134.937 0,79.602 -61.15,132.844 -137.58,132.844 -76.43,0 -137.58,-53.242 -137.58,-132.844 z m -164.46,81.184 c 45.86,0 74.85,-36.903 74.85,-80.653 0,-42.168 -28.46,-80.129 -75.37,-80.129 -45.34,0 -72.22,40.071 -72.22,80.129 0,44.801 26.88,80.653 72.74,80.653 z m 74.85,44.277 v -37.961 h -1.05 c -18.45,30.582 -51.66,45.344 -86.98,45.344 -76.43,0 -123.87,-59.57 -123.87,-132.844 0,-71.687 49.02,-131.777 124.93,-131.777 34.79,0 64.31,13.179 82.76,37.949 h 1.05 v -18.449 c 0,-50.0822 -18.97,-86.9729 -80.12,-86.9729 -31.63,0 -64.31,12.6524 -88.56,35.8438 L 1182.86,41.6484 C 1215.54,14.7617 1267.2,0 1308.32,0 c 98.57,0 142.85,57.9883 142.85,149.18 v 230.359 h -60.1 z M 1139.11,525.02 h -35.85 v -398.5 h 35.85 v 398.5 z M 1007.86,249.859 V 231.41 c 0,-43.75 -28.473,-81.699 -79.071,-81.699 -27.941,0 -57.992,11.598 -57.992,46.91 0,46.918 68,53.238 126.512,53.238 h 10.551 z m 0,27.942 c -90.141,0 -173.962,-6.852 -173.962,-82.762 0,-54.82 47.969,-74.848 85.399,-74.848 39.531,0 66.941,13.7 89.613,46.387 h 1.05 c 0,-13.18 1.59,-27.937 3.69,-40.058 h 32.16 c -2.64,13.699 -4.22,36.371 -4.22,55.339 v 108.063 c 0,60.098 -42.703,89.617 -95.934,89.617 -42.179,0 -76.968,-15.289 -97,-35.32 L 868.688,320.5 c 17.402,17.391 44.281,28.988 73.281,28.988 42.687,0 65.891,-21.09 65.891,-63.777 v -7.91 z M 795.949,468.09 c 0,14.762 -12.652,25.308 -25.301,25.308 -12.652,0 -25.3,-10.546 -25.3,-25.308 0,-14.762 12.648,-25.301 25.3,-25.301 12.649,0 25.301,10.539 25.301,25.301 z m -7.383,-94.879 H 752.727 V 126.52 h 35.839 V 373.211 Z M 725.84,336.84 c -21.082,28.461 -58.512,42.699 -91.723,42.699 -79.594,0 -131.777,-55.348 -131.777,-129.68 0,-74.32 52.183,-129.668 131.777,-129.668 42.699,0 72.75,16.868 93.832,42.7 l -26.883,20.031 c -14.226,-18.981 -35.847,-32.16 -66.949,-32.16 -57.453,0 -93.824,43.226 -93.824,99.097 0,56.411 36.898,99.629 94.355,99.629 26.879,0 51.661,-13.707 63.258,-32.679 L 725.84,336.84 Z M 436.98,249.859 c 0,-55.347 -36.371,-99.097 -93.828,-99.097 -56.929,0 -93.3,43.75 -93.3,99.097 0,55.352 36.371,99.629 93.3,99.629 57.457,0 93.828,-44.277 93.828,-99.629 z m 37.954,0 c 0,74.332 -54.821,129.68 -131.782,129.68 -76.433,0 -131.254,-55.348 -131.254,-129.68 0,-74.32 54.821,-129.668 131.254,-129.668 76.961,0 131.782,55.348 131.782,129.668 z m -288.86,85.403 c -15.812,27.937 -52.183,44.277 -86.4451,44.277 -44.8086,0 -88.0312,-21.617 -88.0312,-71.687 0,-46.922 41.6406,-59.571 70.6328,-66.422 46.9145,-11.071 72.7465,-21.61 72.7465,-47.442 0,-32.156 -27.411,-43.226 -57.9848,-43.226 -28.9922,0 -55.875,16.867 -68.5274,38.476 L 0,168.16 c 22.668,-33.211 60.0938,-47.969 97.5195,-47.969 45.3325,0 92.7735,20.028 92.7735,76.43 0,38.481 -27.41,60.098 -85.395,72.219 -40.5894,8.43 -59.0386,18.98 -59.0386,42.172 0,27.41 26.3594,38.476 52.1875,38.476 27.4101,0 50.0741,-14.226 60.6171,-34.789 l 27.41,20.563 v 0" /><path
         id="path16"
         style="fill:#f79110;fill-opacity:1;fill-rule:nonzero;stroke:none"
         d="m 1756.03,1245.15 c 13.41,-3.59 20.63,-10.75 24.43,-18.41 4.73,-7.13 7.33,-16.95 3.73,-30.36 l -56.43,-210.599 c 0,0 -9.93,-37.066 -47,-27.129 l -17.75,4.75 c 0,0 -37.08,9.93 -27.14,47.008 l 42.11,157.16 -157.16,42.11 c -37.08,9.95 -27.14,47.01 -27.14,47.01 l 4.76,17.75 c 9.92,37.08 47,27.13 47,27.13 l 210.59,-56.42 v 0" /><path
         id="path18"
         style="fill:#f79110;fill-opacity:1;fill-rule:nonzero;stroke:none"
         d="m 1896.87,1229.18 c 28.37,16.38 38.1,52.66 21.71,81.04 -16.38,28.37 -52.66,38.09 -81.03,21.71 -28.38,-16.38 -38.1,-52.66 -21.72,-81.04 16.39,-28.37 52.67,-38.09 81.04,-21.71 v 0" /><path
         id="path20"
         style="fill:#4aa4e0;fill-opacity:1;fill-rule:nonzero;stroke:none"
         d="m 1013.84,816.652 c -3.6,-13.418 -1,-23.238 3.73,-30.359 3.81,-7.672 11.02,-14.828 24.44,-18.422 l 210.58,-56.43 c 0,0 37.08,-9.929 47.01,27.141 l 4.76,17.75 c 0,0 9.93,37.07 -27.14,47.012 l -157.17,42.109 42.11,157.157 c 9.94,37.08 -27.13,47.02 -27.13,47.02 l -17.75,4.75 c -37.08,9.94 -47.01,-27.15 -47.01,-27.15 l -56.43,-210.578 v 0" /><path
         id="path22"
         style="fill:#4aa4e0;fill-opacity:1;fill-rule:nonzero;stroke:none"
         d="m 962.137,689.512 c 28.371,16.383 38.093,52.66 21.711,81.043 -16.379,28.367 -52.66,38.09 -81.039,21.707 -28.371,-16.379 -38.09,-52.66 -21.711,-81.039 16.379,-28.371 52.66,-38.09 81.039,-21.711 v 0" /><path
         id="path24"
         style="fill:#7fcc2a;fill-opacity:1;fill-rule:nonzero;stroke:none"
         d="m 1638.69,653.352 c -3.59,-13.418 -10.76,-20.629 -18.41,-24.43 -7.13,-4.731 -16.95,-7.328 -30.37,-3.731 l -210.59,56.43 c 0,0 -37.07,9.934 -27.14,47 l 4.76,17.75 c 0,0 9.93,37.082 47,27.141 l 157.17,-42.11 42.11,157.161 c 9.93,37.082 47,27.14 47,27.14 l 17.75,-4.762 c 37.09,-9.918 27.14,-47 27.14,-47 l -56.42,-210.589 v 0" /><path
         id="path26"
         style="fill:#7fcc2a;fill-opacity:1;fill-rule:nonzero;stroke:none"
         d="m 1622.72,512.512 c 16.38,-28.371 52.66,-38.102 81.03,-21.723 28.38,16.391 38.1,52.676 21.72,81.043 -16.38,28.371 -52.67,38.102 -81.04,21.711 -28.37,-16.379 -38.09,-52.66 -21.71,-81.031 v 0" /><path
         id="path28"
         style="fill:#eb1a33;fill-opacity:1;fill-rule:nonzero;stroke:none"
         d="m 1210.19,1395.54 c -13.42,3.59 -23.24,1 -30.37,-3.73 -7.66,-3.81 -14.82,-11.02 -18.42,-24.43 l -56.42,-210.59 c 0,0 -9.94,-37.08 27.14,-47.01 l 17.75,-4.76 c 0,0 37.07,-9.94 47,27.14 l 42.12,157.16 157.16,-42.11 c 37.08,-9.93 47,27.14 47,27.14 l 4.76,17.75 c 9.94,37.08 -27.14,47.01 -27.14,47.01 l -210.58,56.43 v 0" /><path
         id="path30"
         style="fill:#eb1a33;fill-opacity:1;fill-rule:nonzero;stroke:none"
         d="m 1083.05,1447.24 c 16.38,-28.36 52.66,-38.09 81.03,-21.71 28.38,16.38 38.1,52.67 21.72,81.03 -16.38,28.38 -52.66,38.1 -81.04,21.73 -28.37,-16.39 -38.09,-52.66 -21.71,-81.05 v 0" /></g></g></svg>