<?xml version="1.0" encoding="UTF-8"?>
<svg width="25px" height="25px" viewBox="0 0 25 25" version="1.1" xmlns="http://www.w3.org/2000/svg" xmlns:xlink="http://www.w3.org/1999/xlink">
    <!-- Generator: Sketch 50.2 (55047) - http://www.bohemiancoding.com/sketch -->
    <title>instagram_icon</title>
    <desc>Created with Sketch.</desc>
    <defs></defs>
    <g id="homepage" stroke="none" stroke-width="1" fill="none" fill-rule="evenodd">
        <g id="good_emporium" transform="translate(-1217.000000, -1745.000000)" fill="#18A1DB">
            <g id="instagram_icon" transform="translate(1217.000000, 1745.000000)">
                <path d="M12.5000248,0 C9.10520382,0 8.6795239,0.0143894602 7.3463156,0.0752221435 C6.01578673,0.13590597 5.10716675,0.347232559 4.31202502,0.656258621 C3.49003952,0.975704637 2.7929446,1.4030716 2.09798329,2.09798329 C1.4030716,2.7929446 0.975704637,3.49003952 0.656258621,4.31202502 C0.347232559,5.10716675 0.13590597,6.01573711 0.0752221435,7.34626598 C0.0143894602,8.6795239 0,9.10520382 0,12.5000248 C0,15.8947962 0.0143894602,16.3204761 0.0752221435,17.653734 C0.13590597,18.9842629 0.347232559,19.8928829 0.656258621,20.687975 C0.975704637,21.5099605 1.4030716,22.207105 2.09798329,22.9020167 C2.7929446,23.5969284 3.49003952,24.024345 4.31202502,24.3437414 C5.10716675,24.6528171 6.01578673,24.864094 7.3463156,24.9247779 C8.6795239,24.9856602 9.10520382,25 12.5000248,25 C15.8948458,25 16.3204761,24.9856602 17.653734,24.9247779 C18.9842629,24.864094 19.8928829,24.6528171 20.6880246,24.3437414 C21.5099605,24.024345 22.207105,23.5969284 22.9020167,22.9020167 C23.596978,22.207105 24.024345,21.5099605 24.343791,20.687975 C24.6528171,19.8928829 24.864094,18.9842629 24.9247779,17.653734 C24.9856602,16.3204761 25,15.8947962 25,12.5000248 C25,9.10520382 24.9856602,8.6795239 24.9247779,7.34626598 C24.864094,6.01573711 24.6528171,5.10716675 24.343791,4.31202502 C24.024345,3.49003952 23.596978,2.7929446 22.9020167,2.09798329 C22.207105,1.4030716 21.5099605,0.975704637 20.6880246,0.656258621 C19.8928829,0.347232559 18.9842629,0.13590597 17.653734,0.0752221435 C16.3204761,0.0143894602 15.8948458,0 12.5000248,0 M12.5000248,2.25224823 C15.8376849,2.25224823 16.2329981,2.26500027 17.5510727,2.32513829 C18.7698103,2.38071138 19.4316759,2.58434705 19.8721422,2.755532 C20.45561,2.98229005 20.8720608,3.25315923 21.3094012,3.6905492 C21.7468408,4.12798879 22.01771,4.54439 22.2445176,5.1278578 C22.415653,5.56832413 22.6192886,6.2302393 22.6749113,7.44892734 C22.7349997,8.76700189 22.7477518,9.16236471 22.7477518,12.5000248 C22.7477518,15.8376849 22.7349997,16.2329485 22.6749113,17.5510727 C22.6192886,18.7697607 22.415653,19.4316759 22.2445176,19.8721422 C22.01771,20.45561 21.7468408,20.8720112 21.3094508,21.3094012 C20.8720608,21.7467912 20.45561,22.01771 19.8721422,22.2445176 C19.4316759,22.415653 18.7698103,22.619239 17.5510727,22.6748617 C16.2331966,22.7349997 15.837933,22.7477518 12.5000248,22.7477518 C9.16211662,22.7477518 8.76685303,22.7349997 7.44892734,22.6748617 C6.2302393,22.619239 5.56837375,22.415653 5.12790742,22.2445176 C4.54439,22.01771 4.12798879,21.7467912 3.69059882,21.3094508 C3.25320885,20.8720112 2.98233967,20.45561 2.755532,19.8721422 C2.58434705,19.4316759 2.38076099,18.7697607 2.32508867,17.5511223 C2.26500027,16.2329485 2.25229785,15.8376849 2.25229785,12.5000248 C2.25229785,9.16236471 2.26500027,8.76700189 2.32508867,7.44892734 C2.38076099,6.2302393 2.58434705,5.56832413 2.755532,5.1278578 C2.98233967,4.54439 3.25320885,4.12798879 3.69059882,3.69059882 C4.12798879,3.25315923 4.54439,2.98229005 5.12790742,2.755532 C5.56837375,2.58434705 6.2302393,2.38071138 7.44892734,2.32513829 C8.76705151,2.26500027 9.16236471,2.25224823 12.5000248,2.25224823" id="Fill-1"></path>
                <path d="M12.5,16.7193097 C10.1697497,16.7193097 8.28065768,14.8302323 8.28065768,12.5 C8.28065768,10.1697175 10.1697497,8.28074054 12.5,8.28074054 C14.8302503,8.28074054 16.7193423,10.1697175 16.7193423,12.5 C16.7193423,14.8302323 14.8302503,16.7193097 12.5,16.7193097 M12.5,6 C8.91013729,6 6,8.91016504 6,12.5 C6,16.089835 8.91013729,19 12.5,19 C16.0898627,19 19,16.089835 19,12.5 C19,8.91016504 16.0898627,6 12.5,6" id="Fill-4"></path>
                <path d="M21,5.5 C21,6.32844856 20.3284597,7 19.5000248,7 C18.67159,7 18,6.32844856 18,5.5 C18,4.67160106 18.67159,4 19.5000248,4 C20.3284597,4 21,4.67160106 21,5.5" id="Fill-6"></path>
            </g>
        </g>
    </g>
</svg>