<?xml version="1.0" encoding="UTF-8"?>
<svg width="31px" height="25px" viewBox="0 0 31 25" version="1.1" xmlns="http://www.w3.org/2000/svg" xmlns:xlink="http://www.w3.org/1999/xlink">
    <!-- Generator: Sketch 50.2 (55047) - http://www.bohemiancoding.com/sketch -->
    <title>twitter_icon</title>
    <desc>Created with Sketch.</desc>
    <defs></defs>
    <g id="homepage" stroke="none" stroke-width="1" fill="none" fill-rule="evenodd">
        <g id="good_emporium" transform="translate(-1155.000000, -1745.000000)" fill="#18A1DB">
            <g id="Page-1" transform="translate(1155.000000, 1745.000000)">
                <path d="M27.2194061,7.00955882 C27.2194061,6.7375 27.2194061,6.46666667 27.2012242,6.19705882 C28.4179515,5.30723039 29.4683758,4.20551471 30.3030424,2.94338235 C29.1683758,3.45171569 27.9646182,3.78504902 26.7321333,3.93235294 C28.0299515,3.14681373 29.0013455,1.91127451 29.4654667,0.455637255 C28.2449818,1.18786765 26.9098303,1.70379902 25.5175879,1.98137255 C23.1630424,-0.549877451 19.2246182,-0.672181373 16.7209818,1.70845588 C15.1063152,3.24362745 14.4212242,5.53137255 14.9224364,7.71421569 C9.92352727,7.46090686 5.26607273,5.07365196 2.10910303,1.14681373 C0.458921212,4.01887255 1.3018303,7.6932598 4.03395152,9.5377451 C3.04449697,9.50808824 2.07673939,9.23823529 1.21213333,8.75098039 L1.21213333,8.83063725 C1.21298182,11.8227941 3.29904242,14.3998775 6.20001212,14.992402 C5.28473939,15.2447304 4.32437576,15.2817402 3.39273939,15.1002451 C4.20716364,17.6607843 6.54134545,19.414951 9.20122424,19.4654412 C6.99964848,21.2147059 4.28001212,22.1643382 1.48001212,22.1615196 C0.985345455,22.1605392 0.491163636,22.1302696 1.21212121e-05,22.0708333 C2.84316364,23.9155637 6.15140606,24.8939951 9.52970909,24.8894608 C20.9648606,24.8943627 27.2194061,15.3159314 27.2194061,7.00955882 Z" id="twitter_icon"></path>
            </g>
        </g>
    </g>
</svg>