<?xml version="1.0" encoding="UTF-8"?>
<svg width="25px" height="25px" viewBox="0 0 25 25" version="1.1" xmlns="http://www.w3.org/2000/svg" xmlns:xlink="http://www.w3.org/1999/xlink">
    <!-- Generator: Sketch 50.2 (55047) - http://www.bohemiancoding.com/sketch -->
    <title>facebook_icon</title>
    <desc>Created with Sketch.</desc>
    <defs></defs>
    <g id="homepage" stroke="none" stroke-width="1" fill="none" fill-rule="evenodd">
        <g id="good_emporium" transform="translate(-1100.000000, -1745.000000)" fill="#18A1DB">
            <path d="M1101.37977,1745 C1100.61757,1745 1100,1745.61766 1100,1746.37976 L1100,1768.62015 C1100,1769.38215 1100.61757,1770 1101.37977,1770 L1113.35329,1770 L1113.35329,1760.31866 L1110.09534,1760.31866 L1110.09534,1756.54565 L1113.35329,1756.54565 L1113.35329,1753.76318 C1113.35329,1750.5342 1115.32543,1748.77592 1118.20599,1748.77592 C1119.58575,1748.77592 1120.77171,1748.87859 1121.11736,1748.92448 L1121.11736,1752.29903 L1119.11946,1752.29997 C1117.55291,1752.29997 1117.24952,1753.04436 1117.24952,1754.13674 L1117.24952,1756.54565 L1120.98575,1756.54565 L1120.49923,1760.31866 L1117.24952,1760.31866 L1117.24952,1770 L1123.62023,1770 C1124.38215,1770 1125,1769.38215 1125,1768.62015 L1125,1746.37976 C1125,1745.61766 1124.38215,1745 1123.62023,1745 L1101.37977,1745 Z" id="facebook_icon"></path>
        </g>
    </g>
</svg>